<svg id="Слой_1" data-name="Слой 1" xmlns="http://www.w3.org/2000/svg" viewBox="0 0 4562.82 3724.13"><defs><style>.cls-1,.cls-2{stroke:#1d1d1b;stroke-miterlimit:10;}.cls-2{fill:none;}</style></defs><title>corp</title><path class="cls-1" d="M4453.31,23.83H305.69c-113.91,0-207.1,93.2-207.1,207.1V2541.35c0,113.91,93.2,207.1,207.1,207.1H4453.31c113.91,0,207.1-93.2,207.1-207.1V230.93C4660.41,117,4567.22,23.83,4453.31,23.83Zm-45,2460.75H350.69V287.7H4408.31Z" transform="translate(-98.09 -23.33)"/><rect class="cls-1" x="1213.98" y="1362.81" width="252.1" height="774.08"/><rect class="cls-1" x="1861.24" y="1116.48" width="276.11" height="1020.41"/><rect class="cls-1" x="2557.52" y="1362.81" width="276.11" height="774.08"/><rect class="cls-1" x="3265.81" y="1116.48" width="300.12" height="1020.41"/><rect class="cls-1" x="821.18" y="918.24" width="1458.05" height="206.34" transform="translate(-389.31 762.33) rotate(-26.08)"/><rect class="cls-1" x="2075.54" y="822.32" width="1093.92" height="211.63" transform="translate(497.54 -1000.64) rotate(23.74)"/><rect class="cls-1" x="2977.38" y="833.15" width="927.82" height="191.96" transform="translate(-101.61 1821.79) rotate(-30)"/><path d="M3435.1,3309.71c-583,583-1528.2,583-2111.19,0,132.91-132.91,398.73-210.77,398.73-398.73H3036.37C3036.37,3098.95,3302.19,3176.8,3435.1,3309.71Z" transform="translate(-98.09 -23.33)"/><path class="cls-2" d="M3435.1,3309.71c-583,583-1528.2,583-2111.19,0,132.91-132.91,398.73-210.77,398.73-398.73H3036.37C3036.37,3098.95,3302.19,3176.8,3435.1,3309.71Z" transform="translate(-98.09 -23.33)"/></svg>