<?xml version="1.0" encoding="utf-8"?>
<!-- Generator: Adobe Illustrator 21.0.2, SVG Export Plug-In . SVG Version: 6.00 Build 0)  -->
<svg version="1.1" id="Слой_1" xmlns="http://www.w3.org/2000/svg" xmlns:xlink="http://www.w3.org/1999/xlink" x="0px" y="0px"
	 viewBox="0 0 575 475.3" style="enable-background:new 0 0 575 475.3;" xml:space="preserve">
<title>visit</title>
<path d="M287.4-0.1c-27.3,0-49.5,22.2-49.5,49.5v77c0,27.3,22.2,49.5,49.5,49.5s49.5-22.2,49.5-49.5v-77
	C336.9,22,314.7-0.1,287.4-0.1z M312.4,125.4c0,13.8-11.2,25.1-25.1,25.1s-25.1-11.2-25.1-25.1v-75c0-13.8,11.2-25.1,25.1-25.1
	s25.1,11.2,25.1,25.1V125.4z"/>
<rect x="275" y="50.8" width="24.7" height="24.7"/>
<rect x="307.8" y="250.6" width="175.1" height="25"/>
<rect x="307.8" y="325.6" width="50" height="25"/>
<rect x="383.9" y="325.6" width="75" height="25"/>
<rect x="307.8" y="375.8" width="100" height="25"/>
<g>
	<path d="M144.5,410.8c0.2-0.7,0.6-1.4,1.1-1.9c0-0.1,0-0.3,0-0.4v-47.1c0-0.1,0-0.1,0-0.2c-0.2-0.5-0.3-1.1-0.4-1.6
		c-0.4-0.2-0.8-0.6-1.1-0.9h-9.4c-6.6,0-12,3.5-12,7.9v38c0,4.4,5.4,7.9,12,7.9h8.3C143.4,411.8,143.9,411.1,144.5,410.8z"/>
	<path d="M183.6,358.6h-9.9c-0.2,0.2-0.4,0.4-0.7,0.6c-0.1,0.5-0.2,0.9-0.4,1.3c0,0.3,0.1,0.5,0.1,0.8v46.1c0.7,0.3,1.3,0.9,1.8,1.5
		c0.8,0.4,1.4,1,1.8,1.7c1,0.3,1.8,1,2.4,1.8h5c6.6,0,12-3.5,12-7.9v-38C195.6,362.1,190.2,358.6,183.6,358.6z"/>
</g>
<path d="M159.1,208.9c-41,0-74.2,33.2-74.2,74.2v22.7c0,36.3,26.1,66.5,60.6,72.9v-19.8c-20.9-5.6-36.4-24.7-36.4-47.5v-34
	c0-27.2,22-49.2,49.2-49.2h1.7c27.2,0,49.2,22,49.2,49.2v34c0,22.8-15.5,41.9-36.5,47.5v19.8c34.5-6.4,60.7-36.6,60.7-73V283
	C233.3,242.2,200.1,208.9,159.1,208.9z"/>
<path d="M268.7,451.4l-21.9-39.9c-3.6-6.5-11.2-11.8-17-11.8h-57.3v12.8H215c3.9,0,9.5,3.6,12.6,8l15.3,22.4c3,4.4,0.8,8-5,8H83.5
	c-5.7,0-7.6-3.6-4.2-8l17.5-22.4c3.4-4.4,9.4-8,13.3-8h35.4v-12.8H93.3c-5.8,0-13.8,5.3-17.9,11.8l-25,39.9
	c-4.1,6.5-0.4,11.8,8.1,11.8h201.1C268.2,463.1,272.2,457.9,268.7,451.4z"/>
<path d="M535.8,113.8H316.2v24.4h205.3c15.7,0,28.3,12.7,28.3,28.3v255.9c0,15.7-12.7,28.3-28.3,28.3H53.2
	c-15.7,0-28.3-12.7-28.3-28.3V166.5c0-15.7,12.7-28.3,28.3-28.3h207.7v-24.4H39.2c-21.6,0-39.2,17.5-39.2,39.2v283.1
	c0,21.6,17.5,39.2,39.2,39.2h496.7c21.6,0,39.2-17.5,39.2-39.2V152.9C575,131.3,557.5,113.8,535.8,113.8z"/>
</svg>
