<?xml version="1.0" encoding="utf-8"?>
<!-- Generator: Adobe Illustrator 21.0.2, SVG Export Plug-In . SVG Version: 6.00 Build 0)  -->
<svg version="1.1" id="Слой_1" xmlns="http://www.w3.org/2000/svg" xmlns:xlink="http://www.w3.org/1999/xlink" x="0px" y="0px"
	 viewBox="0 0 612 792" style="enable-background:new 0 0 612 792;" xml:space="preserve">
<style type="text/css">
	.st0{fill:#FFFFFF;}
</style>
<g>
	<g>
		<path class="st0" d="M595.7,604.2c-192.7,0-385.5,0-578.2,0c0-154.4,0-308.8,0-463.1c192.7,0,385.5,0,578.2,0
			C595.7,295.4,595.7,449.8,595.7,604.2z M312,528c88.6,0,177.1,0,265.7,0c4.5,0,8.6-1.3,12.5-3.5c3.4-2,5.1-4.4,5.1-9
			c-0.2-118.7-0.1-237.5-0.1-356.2c0-0.8,0.1-1.5,0-2.2c-0.3-1-0.5-2.2-1.2-2.9c-4.9-5.2-11.3-6.9-18.2-6.9
			c-171.5,0-342.9,0-514.4,0c-4.7,0-9.4-0.1-14.1,0c-4.4,0.1-8.6,1-12.5,3.4c-8.3,5-11.4,12.7-11.4,21.9c0,108.4,0,216.8,0,325.2
			c0,3.3,0.2,6.5,0.5,9.8c1,11.4,10.8,20.4,22.4,20.4C134.7,528,223.4,528,312,528z M397.8,603.5c0.1-0.2,0.2-0.4,0.4-0.7
			c-3.2-2.6-6.3-5.3-9.6-7.6c-6.5-4.6-11.1-10.6-12.7-18.4c-1.5-7.5-2.5-15-3.5-22.6c-0.3-2.3-1.1-3.1-3.5-3.1
			c-37.9,0.1-75.7,0.1-113.6,0.1c-1,0-2,0-2.9,0c-0.5,3.1-0.9,5.7-1.3,8.4c-1,6.1-1.6,12.4-3,18.4c-1.8,7.7-6.7,13.3-13.2,17.8
			c-3.1,2.2-6,4.8-9,7.2c0.1,0.2,0.3,0.4,0.4,0.5C283.4,603.5,340.6,603.5,397.8,603.5z"/>
		<path d="M312,528c-88.6,0-177.3,0-265.9,0c-11.5,0-21.4-8.9-22.4-20.4c-0.3-3.3-0.5-6.5-0.5-9.8c0-108.4,0-216.8,0-325.2
			c0-9.3,3.1-16.9,11.4-21.9c3.9-2.3,8.1-3.2,12.5-3.4c4.7-0.1,9.4,0,14.1,0c171.5,0,342.9,0,514.4,0c6.9,0,13.3,1.7,18.2,6.9
			c0.7,0.7,1,1.9,1.2,2.9c0.2,0.7,0,1.5,0,2.2c0,118.7,0,237.5,0.1,356.2c0,4.5-1.8,7-5.1,9c-3.8,2.2-7.9,3.5-12.5,3.5
			C489.1,528,400.6,528,312,528z M58.2,182.2c0,92.5,0,184.7,0,276.8c169.5,0,338.7,0,508,0c0-92.3,0-184.5,0-276.8
			C396.8,182.2,227.6,182.2,58.2,182.2z"/>
		<path d="M397.8,603.5c-57.2,0-114.4,0-171.5,0c-0.1-0.2-0.3-0.4-0.4-0.5c3-2.4,5.8-5,9-7.2c6.4-4.5,11.4-10.1,13.2-17.8
			c1.4-6,2.1-12.3,3-18.4c0.4-2.7,0.8-5.3,1.3-8.4c0.9,0,1.9,0,2.9,0c37.9,0,75.7,0,113.6-0.1c2.4,0,3.2,0.7,3.5,3.1
			c1,7.5,2,15.1,3.5,22.6c1.6,7.8,6.2,13.8,12.7,18.4c3.3,2.4,6.4,5.1,9.6,7.6C398.1,603,397.9,603.3,397.8,603.5z"/>
		<path class="st0" d="M58.2,182.2c169.4,0,338.6,0,508,0c0,92.3,0,184.5,0,276.8c-169.3,0-338.5,0-508,0
			C58.2,366.8,58.2,274.7,58.2,182.2z M490.2,199.4c-4.8,3.4-9.3,6.7-13.8,9.9c-21.1,15.2-42.1,30.4-63.2,45.7
			c-12.2,8.8-24.5,17.6-36.7,26.6c-1.9,1.4-3.2,1.8-5.3,0.3c-7.1-4.8-14.4-9.2-21.6-13.8c-21.9-14-43.9-28.1-65.8-42.1
			c-0.7-0.5-2.1-0.6-2.9-0.2c-3.6,1.7-7.1,3.7-10.7,5.5c-20.3,10.4-40.5,20.9-60.8,31.3c-22.9,11.8-45.8,23.5-68.8,35.3
			c-6.6,3.4-13.2,6.8-20,10.2c3.6,6.9,7.1,13.5,10.6,20.2c1.1-0.6,2.1-1,3.1-1.5c17.5-9,35.1-18.1,52.6-27.1
			c13.6-7,27.2-13.8,40.8-20.8c17.4-8.9,34.7-17.9,52.1-26.7c0.7-0.4,2-0.3,2.7,0.2c16.7,10.6,33.4,21.3,50.1,32
			c13.1,8.4,26.2,16.7,39.2,25.2c2.4,1.6,3.9,1,5.9-0.4c20.5-14.9,41-29.7,61.5-44.6c15.6-11.3,31.2-22.6,46.9-33.9
			c5.8-4.2,11.6-8.4,17.5-12.7C499.1,211.8,494.7,205.8,490.2,199.4z M298.9,300.2c-1.2,0-2,0-2.8,0c-13.3,0-26.7,0.1-40-0.1
			c-2.8,0-3.2,1-3.2,3.4c0.1,40.1,0,80.2,0,120.3c0,1,0,2,0,3c15.6,0,30.8,0,46,0C298.9,384.6,298.9,342.6,298.9,300.2z
			 M478.1,426.9c0-0.9,0.1-1.5,0.1-2.1c0-40.6,0-81.2,0.1-121.8c0-2.3-0.8-2.8-3-2.8c-13.5,0.1-27.1,0-40.6,0
			c-0.8,0-1.6,0.1-2.4,0.2c0,42.3,0,84.4,0,126.6C447.5,426.9,462.6,426.9,478.1,426.9z M154.8,426.8c15.4,0,30.6,0,45.8,0
			c0-28.8,0-57.4,0-85.9c-15.4,0-30.6,0-45.8,0C154.8,369.7,154.8,398.2,154.8,426.8z M391.3,426.9c0-28.8,0-57.4,0-85.9
			c-15.4,0-30.7,0-45.9,0c0,28.8,0,57.3,0,85.9C360.7,426.9,375.9,426.9,391.3,426.9z"/>
		<path d="M490.2,199.4c4.6,6.3,8.9,12.4,13.4,18.5c-5.9,4.3-11.7,8.5-17.5,12.7c-15.6,11.3-31.2,22.6-46.9,33.9
			c-20.5,14.8-41,29.7-61.5,44.6c-2,1.5-3.5,2-5.9,0.4c-13-8.5-26.1-16.8-39.2-25.2c-16.7-10.7-33.4-21.4-50.1-32
			c-0.7-0.4-2-0.5-2.7-0.2c-17.4,8.9-34.7,17.8-52.1,26.7c-13.6,7-27.2,13.8-40.8,20.8c-17.6,9-35.1,18.1-52.6,27.1
			c-1,0.5-2,1-3.1,1.5c-3.5-6.7-7-13.4-10.6-20.2c6.8-3.5,13.4-6.9,20-10.2c22.9-11.8,45.8-23.5,68.8-35.3
			c20.3-10.4,40.5-20.8,60.8-31.3c3.6-1.8,7.1-3.8,10.7-5.5c0.8-0.4,2.2-0.3,2.9,0.2c22,14,43.9,28,65.8,42.1
			c7.2,4.6,14.5,9.1,21.6,13.8c2.1,1.4,3.5,1,5.3-0.3c12.2-8.9,24.4-17.7,36.7-26.6c21.1-15.2,42.1-30.4,63.2-45.7
			C480.8,206.1,485.4,202.9,490.2,199.4z"/>
		<path d="M298.9,300.2c0,42.4,0,84.5,0,126.7c-15.3,0-30.4,0-46,0c0-1,0-2,0-3c0-40.1,0-80.2,0-120.3c0-2.4,0.5-3.5,3.2-3.4
			c13.3,0.2,26.7,0.1,40,0.1C296.9,300.2,297.7,300.2,298.9,300.2z"/>
		<path d="M478.1,426.9c-15.5,0-30.6,0-45.8,0c0-42.2,0-84.3,0-126.6c0.8-0.1,1.6-0.2,2.4-0.2c13.5,0,27.1,0,40.6,0
			c2.1,0,3,0.5,3,2.8c-0.1,40.6,0,81.2-0.1,121.8C478.2,425.4,478.1,426,478.1,426.9z"/>
		<path d="M154.8,426.8c0-28.7,0-57.2,0-85.9c15.2,0,30.4,0,45.8,0c0,28.5,0,57.1,0,85.9C185.4,426.8,170.2,426.8,154.8,426.8z"/>
		<path d="M391.3,426.9c-15.4,0-30.6,0-45.9,0c0-28.7,0-57.2,0-85.9c15.2,0,30.5,0,45.9,0C391.3,369.5,391.3,398.1,391.3,426.9z"/>
	</g>
</g>
</svg>
