<?xml version="1.0" encoding="utf-8"?>
<!-- Generator: Adobe Illustrator 21.0.2, SVG Export Plug-In . SVG Version: 6.00 Build 0)  -->
<svg version="1.1" id="Слой_1" xmlns="http://www.w3.org/2000/svg" xmlns:xlink="http://www.w3.org/1999/xlink" x="0px" y="0px"
	 viewBox="0 0 1110.4 876" style="enable-background:new 0 0 1110.4 876;" xml:space="preserve">
<style type="text/css">
	.st0{stroke:#000000;stroke-miterlimit:10;}
</style>
<title>land</title>
<path class="st0" d="M279.7,241.2h543.2c6.6,0,12,5.4,12,12V362c0,6.6-5.4,12-12,12H279.7c-6.6,0-12-5.4-12-12V253.2
	C267.7,246.6,273.1,241.2,279.7,241.2z"/>
<path class="st0" d="M279.7,426h259.6c6.6,0,12,5.4,12,12v270.9c0,6.6-5.4,12-12,12H279.7c-6.6,0-12-5.4-12-12V438
	C267.7,431.4,273.1,426,279.7,426z"/>
<path class="st0" d="M599.8,426h231.1c2.2,0,4,1.8,4,4v21.3c0,2.2-1.8,4-4,4H599.8c-2.2,0-4-1.8-4-4V430
	C595.8,427.8,597.6,426,599.8,426z"/>
<path class="st0" d="M599.8,475.5h231.1c2.2,0,4,1.8,4,4v23.3c0,2.2-1.8,4-4,4H599.8c-2.2,0-4-1.8-4-4v-23.3
	C595.8,477.3,597.6,475.5,599.8,475.5z"/>
<path class="st0" d="M600,530.8h230.8c2.3,0,4.1,1.9,4.1,4.1v21.8c0,2.3-1.9,4.1-4.1,4.1H600c-2.3,0-4.1-1.9-4.1-4.1v-21.8
	C595.8,532.7,597.7,530.8,600,530.8z"/>
<path class="st0" d="M599.6,584.9h231.5c2.1,0,3.8,1.7,3.8,3.8v21.5c0,2.1-1.7,3.8-3.8,3.8H599.6c-2.1,0-3.8-1.7-3.8-3.8v-21.5
	C595.8,586.6,597.5,584.9,599.6,584.9z"/>
<path class="st0" d="M599.6,638h231.5c2.1,0,3.8,1.7,3.8,3.8v21.6c0,2.1-1.7,3.8-3.8,3.8H599.6c-2.1,0-3.8-1.7-3.8-3.8v-21.6
	C595.8,639.7,597.5,638,599.6,638z"/>
<path class="st0" d="M599.8,684h231.1c2.2,0,4,1.8,4,4v18.5c0,2.2-1.8,4-4,4H599.8c-2.2,0-4-1.8-4-4V688
	C595.8,685.8,597.6,684,599.8,684z"/>
<path class="st0" d="M1016,0.5H94.4c-51.9,0-93.9,42-93.9,93.9v687.2c0,51.9,42,93.9,93.9,93.9H1016c51.9,0,93.9-42,93.9-93.9V94.4
	C1109.9,42.6,1067.9,0.5,1016,0.5z M894.2,60.3c0-6.6,5.4-12,12-12h43.7c6.6,0,12,5.4,12,12V104c0,6.6-5.4,12-12,12h-43.7
	c-6.6,0-12-5.4-12-12V60.3z M806.2,60.3c0-6.6,5.4-12,12-12h43.7c6.6,0,12,5.4,12,12V104c0,6.6-5.4,12-12,12h-43.7
	c-6.6,0-12-5.4-12-12V60.3z M715.4,60.3c0-6.6,5.4-12,12-12h43.7c6.6,0,12,5.4,12,12V104c0,6.6-5.4,12-12,12h-43.7
	c-6.6,0-12-5.4-12-12V60.3z M1020.3,769.7c0,14.1-8.8,25.5-19.5,25.5H106.9c-10.8,0-19.6-11.4-19.6-25.5V197.9
	c0-14.1,8.8-25.5,19.6-25.5h893.9c10.8,0,19.5,11.4,19.5,25.5V769.7z"/>
</svg>
