<?xml version="1.0" encoding="utf-8"?>
<!-- Generator: Adobe Illustrator 21.0.2, SVG Export Plug-In . SVG Version: 6.00 Build 0)  -->
<svg version="1.1" id="Слой_1" xmlns="http://www.w3.org/2000/svg" xmlns:xlink="http://www.w3.org/1999/xlink" x="0px" y="0px"
	 viewBox="0 0 612 792" style="enable-background:new 0 0 612 792;" xml:space="preserve">
<style type="text/css">
	.st0{fill:#FFFFFF;}
</style>
<g>
	<g>
		<path class="st0" d="M28,98c189,0,378,0,567,0c0,206.7,0,413.3,0,620c-189,0-378,0-567,0C28,511.3,28,304.7,28,98z M276.9,535
			c16.8-17.9,29.6-36.8,40.8-57.2c8-0.6,16-1.1,24-1.9c14.1-1.3,28.1-2.7,42.2-3.9c9.2-0.8,18.4-1.3,27.6-2.1
			c14.2-1.2,28.5-2.7,42.7-3.9c5.1-0.5,10.2-0.6,15.3-1.1c16.2-1.6,32.3-3.6,48.5-4.8c5.8-0.4,9.3-2.7,11.1-7.8
			c0.9-2.6,1.8-5.2,2.6-7.8c5.4-18.2,10.9-36.5,16.1-54.8c5.8-20.3,11.4-40.7,17.2-61.1c6.3-22.4,12.8-44.7,19-67.1
			c1.9-7-2.3-12.9-9.4-13.5c-13.1-1.1-26.3-2.1-39.4-3c-14.6-1.1-29.3-2-43.9-3c-13.6-1-27.3-2-40.9-3c-14.8-1-29.6-2-44.4-3
			c-14.1-1-28.3-2-42.4-3c-14.5-1-28.9-2-43.4-3c-15-1-29.9-2-44.9-3c-13.3-0.9-26.6-2-39.9-3c-15.5-1.1-30.9-2-46.4-3
			c-15.5-1-30.9-1.9-46.4-3.1c-1.3-0.1-3.1-1.5-3.6-2.8c-2.6-6.3-4.7-12.8-7.1-19.2c-4.7-12.2-9.2-24.4-14.3-36.3
			c-1.1-2.7-4.2-5.8-6.9-6.3c-8.7-1.7-17.5-2.3-26.3-3.3c-9.3-1.1-18.6-1.9-27.8-3.3c-6.6-1-12.5,3.3-12.5,10c-0.1,6,0,12,0,18
			c0,5.5,2.8,9.3,8.4,10.2c15.3,2.5,30.7,4.5,46,7.2c3.7,0.7,8.7-1,10.6,4.8c5.1,15.3,10.7,30.4,15.8,45.6
			c9.9,29.6,19.5,59.3,29.2,89c6.7,20.7,13.3,41.5,20.1,62.3c8.5,26,17.3,51.9,25.7,77.9c1.5,4.6,2.4,9.7,2,14.5
			c-1.6,17.7-10.2,32.1-22.3,44.7c-2.7,2.8-5.6,4.3-9.6,4.1c-7.4-0.4-14.7,0-21.8,2.9c-15.9,6.6-26.8,21.2-27.1,38.8
			c-0.3,14.7,5.3,27.2,17.4,36.1c10.5,7.8,22.3,9.7,34.9,7.3c13.2-2.5,22.9-10.1,29-21.5c4.2-7.8,7.1-16.5,4.6-25.9
			c-1.4-5.1-2.5-10.3-3.8-15.5c68.9,0,137.7,0,207,0c-0.6,1.7-1.2,3-1.5,4.4c-1.3,5.2-3.7,10.4-3.6,15.6
			c0.3,18.2,8.3,31.9,25.2,39.9c18.4,8.7,41.1,3.5,53.5-14c11.3-16.1,10.8-36.3-1.4-51.9c-8-10.3-18.9-16.2-32.3-16.2
			c-55.5,0-111,0-166.5,0C281.9,535,280.1,535,276.9,535z"/>
		<path d="M276.9,535c3.2,0,5,0,6.8,0c55.5,0,111,0,166.5,0c13.4,0,24.3,5.9,32.3,16.2c12.2,15.7,12.8,35.9,1.4,51.9
			c-12.3,17.5-35.1,22.7-53.5,14c-16.9-8-24.9-21.8-25.2-39.9c-0.1-5.2,2.3-10.4,3.6-15.6c0.3-1.4,0.9-2.7,1.5-4.4
			c-69.3,0-138.1,0-207,0c1.3,5.3,2.4,10.4,3.8,15.5c2.5,9.4-0.5,18.1-4.6,25.9c-6.1,11.4-15.8,19-29,21.5
			c-12.7,2.4-24.5,0.5-34.9-7.3c-12.1-8.9-17.6-21.4-17.4-36.1c0.3-17.6,11.2-32.2,27.1-38.8c7.1-2.9,14.4-3.3,21.8-2.9
			c4,0.2,6.9-1.2,9.6-4.1c12-12.6,20.7-27,22.3-44.7c0.4-4.7-0.5-9.9-2-14.5c-8.4-26-17.2-51.9-25.7-77.9
			c-6.8-20.7-13.3-41.5-20.1-62.3c-9.7-29.7-19.3-59.4-29.2-89c-5.1-15.3-10.7-30.4-15.8-45.6c-1.9-5.8-6.9-4.2-10.6-4.8
			c-15.3-2.7-30.7-4.7-46-7.2c-5.6-0.9-8.4-4.8-8.4-10.2c0-6-0.1-12,0-18c0.1-6.7,5.9-11,12.5-10c9.2,1.4,18.6,2.2,27.8,3.3
			c8.8,1,17.7,1.6,26.3,3.3c2.7,0.5,5.8,3.6,6.9,6.3c5.1,12,9.6,24.2,14.3,36.3c2.4,6.4,4.6,12.9,7.1,19.2c0.5,1.3,2.3,2.7,3.6,2.8
			c15.5,1.2,30.9,2.1,46.4,3.1c15.5,1,30.9,1.9,46.4,3c13.3,0.9,26.6,2,39.9,3c15,1.1,29.9,2,44.9,3c14.5,1,28.9,2,43.4,3
			c14.1,1,28.3,2,42.4,3c14.8,1,29.6,2,44.4,3c13.6,1,27.3,2,40.9,3c14.6,1,29.3,2,43.9,3c13.1,0.9,26.3,1.9,39.4,3
			c7,0.6,11.3,6.6,9.4,13.5c-6.2,22.4-12.7,44.7-19,67.1c-5.8,20.3-11.4,40.7-17.2,61.1c-5.3,18.3-10.7,36.5-16.1,54.8
			c-0.8,2.6-1.6,5.3-2.6,7.8c-1.9,5.2-5.3,7.4-11.1,7.8c-16.2,1.2-32.3,3.2-48.5,4.8c-5.1,0.5-10.2,0.6-15.3,1.1
			c-14.2,1.3-28.5,2.7-42.7,3.9c-9.2,0.8-18.4,1.3-27.6,2.1c-14.1,1.2-28.1,2.7-42.2,3.9c-8,0.7-16,1.2-24,1.9
			C306.5,498.2,293.7,517.1,276.9,535z M305,251.5c-10.7-0.9-20.7-1.7-30.7-2.5c-12.4-1-24.9-2-37.3-2.9c-2.8-0.2-4.6,0.4-3.5,3.9
			c1.3,4.4,2.2,8.8,3.2,13.3c2.8,12.2,5.7,24.4,8.3,36.6c1,4.5,3,6.3,8,6.2c16.7,0,33.5,0.5,50.3,0.8c2.7,0.1,5.4,0,8.5,0
			C309.4,287.7,307.2,269.5,305,251.5z M334,308c17.6,0,34.5,0,51.4,0c4,0,8-0.3,12,0.2c3.2,0.4,3.7-0.8,3.7-3.4c0-5-0.2-10,0.1-15
			c0.5-9.5,1.3-19,1.7-28.6c0-1.1-1.6-3-2.7-3.2c-4.2-0.7-8.5-0.9-12.8-1.1c-6.8-0.4-13.5-0.6-20.3-1.1c-6-0.5-12-1.4-18.1-1.9
			c-6.9-0.5-13.7-0.7-21.6-1.1C329.7,271.2,331.8,288.9,334,308z M147.4,240.3c1.9,5.8,3.8,11.3,5.6,16.8c4.7,14.7,9.3,29.4,14.3,44
			c0.4,1.3,2.7,2.7,4.2,2.8c5,0.4,10,0.2,15,0.2c12,0,24.1,0,36.6,0c0-0.6,0.2-1.7,0-2.8c-4-17.6-8-35.2-12.2-52.7
			c-0.5-1.9-1.2-3.6-4.1-3.7c-11.8-0.7-23.5-1.8-35.3-2.8C163.8,241.4,156.3,240.9,147.4,240.3z M251.7,328
			c4.5,19.4,9,38.6,13.5,58.2c18.8-0.8,37.2-1.6,56-2.4c-0.8-5.4-1.6-10.4-2.2-15.4c-1.4-12.2-2.6-24.4-4.2-36.6
			c-0.1-1.1-2.3-2.7-3.6-2.7c-11.2-0.5-22.5-0.9-33.7-1.1C269.4,327.9,261.3,328,251.7,328z M396.7,381c0.5-2.2,1.2-4,1.3-5.7
			c0.4-10.3,0.7-20.5,1.1-30.8c0.1-3.3,0.5-6.5,1-9.8c0.4-2.9-0.7-4.4-3.5-4.7c-1.1-0.1-2.3-0.1-3.5-0.1c-10.2,0-20.3,0.2-30.5-0.1
			c-8.4-0.2-16.7-0.9-25.9-1.4c2.3,18.8,4.4,36.6,6.6,54.7C361.3,382.5,378.8,381.8,396.7,381z M242.9,388
			c-4.9-21.4-9.5-41.2-14.2-61.4c-18,0-35.3,0-52.9,0c0.2,1.3,0.3,2.4,0.7,3.5c5.9,18.2,12,36.4,17.7,54.7c1.3,4.3,3.9,4.6,7.4,4.2
			c3.4-0.4,6.8-0.9,10.3-0.9C221.8,387.9,231.7,388,242.9,388z M422.6,310c19.8,0,38.6,0,57.3,0c2.6,0,3.7-0.7,4.2-3.5
			c2.2-13.2,4.9-26.3,7.1-39.4c0.1-0.9-1.4-2.9-2.3-2.9c-5.7-0.6-11.5-0.7-17.3-1.2c-6.5-0.5-13.1-1.6-19.6-1.8
			c-8.9-0.3-17.7-0.1-27.1-0.1C424.2,276.5,423.5,292.4,422.6,310z M290.7,479.9c-22.8,2.1-44.6,4-66.8,6
			c-0.9,18.3-7.5,34.1-18.7,49c11,0,20.7,0,30.5,0c0.8,0,1.6-0.3,2.3-0.6c9.9-3,17.7-9.6,24.4-16.8c9.2-10,16.9-21.2,25.2-32
			C288.8,484.2,289.4,482.4,290.7,479.9z M421.7,330.6c-0.7,16.5-1.3,32.7-2,49.7c18-0.7,35-1.4,51.8-2.1c2.8-15.7,5.4-30.6,8.1-46
			C460.1,331.6,441.6,331.1,421.7,330.6z M329,454.8c0-1.5,0.1-2.5,0-3.5c-1.4-13.2-2.8-26.4-4.2-39.6c-0.5-4.6-2.8-6.2-7.6-5.8
			c-9.2,0.7-18.5,0.7-27.8,1.1c-6.1,0.3-12.1,0.8-18.4,1.2c0,1.4-0.2,2.6,0,3.7c3.3,14.6,6.5,29.2,10.1,43.7c0.3,1.2,2.6,2.6,4,2.6
			c4.7-0.1,9.5-0.8,14.2-1.2C309.1,456.3,318.8,455.6,329,454.8z M220.6,464.3c10.7-1.1,21.5-1.9,32.2-3.3c7-0.9,6.9-1.4,5.3-8.2
			c-3-12.6-6.5-25.2-8.8-37.9c-0.9-5.3-3.2-6.1-7.5-5.9c-11.9,0.4-23.8,0.7-35.7,1.1c-0.9,0-1.8,0.5-3,0.9
			C208.9,428.8,214.7,446.2,220.6,464.3z M395,402.9c-16,0.7-32.4,1.5-49.1,2.3c1.9,15.8,3.7,31.2,5.6,47.1c7.1-0.4,14-0.8,20.8-1.3
			c6.7-0.5,13.4-1.2,20-2.1c1-0.1,2.5-2.2,2.5-3.4C395.1,431.6,395,417.7,395,402.9z M418,446.6c12.5-0.9,25.5-1.7,38.4-2.8
			c1.2-0.1,3.2-1.6,3.4-2.7c2.5-12.4,4.8-24.9,7.1-37.4c0.5-2.9-1.3-3.6-3.9-3.3c-2,0.2-3.9,0.5-5.9,0.5
			c-11.8,0.4-23.5,0.6-35.3,1.2c-1.4,0.1-3.7,2-3.8,3.1C417.9,418.9,418,432.6,418,446.6z M559.4,268.9c-2.7,0-4.6,0.1-6.3,0
			c-11.9-0.9-23.9-2-35.8-2.8c-1.3-0.1-3.8,1.7-4,2.9c-2.3,11.8-3.7,23.8-6.4,35.6c-1.4,6.2,1.6,6.3,5.7,6.4
			c10.5,0.1,20.9-0.1,31.4,0.1c3.3,0.1,4.3-1.9,5-4.3c1.5-5.1,2.9-10.3,4.4-15.5C555.3,284.1,557.2,276.9,559.4,268.9z M528.5,376.4
			c4.2-14.6,8.2-28.4,12.6-43.4c-13.3,0-25.9,0-39.3,0c-2.5,13.9-5.2,28.7-7.9,43.4C505.7,376.4,516.9,376.4,528.5,376.4z
			 M448.3,599c12.1,1.2,21.8-10,21.5-21.1c-0.3-12-9.3-21.1-21.3-20.9c-12.7,0.3-21.3,10.3-21.4,21.6
			C427,588.6,436.7,600.3,448.3,599z M163.8,599c13.4,0.7,22.2-9.7,21.9-20.7c-0.2-11.4-8.5-21.4-21.4-21.4
			c-12,0-21.2,10.1-21.3,21.1C142.8,590.1,154.8,600.4,163.8,599z M482.4,441.4c9.5-0.9,17.9-1.5,26.2-2.5c0.9-0.1,2.1-1.8,2.5-3
			c3.7-12.1,7.3-24.2,11.1-36.9c-1.5-0.3-2.9-0.9-4.3-0.9c-8.3,0.2-16.5,0.4-24.8,1.2c-1.5,0.1-3.5,2.7-3.9,4.4
			c-1.4,5.4-2.1,10.9-3.1,16.3C484.9,426.7,483.7,433.5,482.4,441.4z"/>
		<path class="st0" d="M305,251.5c2.2,18,4.4,36.2,6.8,55.5c-3.1,0-5.8,0-8.5,0c-16.8-0.3-33.5-0.9-50.3-0.8c-5,0-7-1.7-8-6.2
			c-2.7-12.2-5.5-24.4-8.3-36.6c-1-4.4-1.9-8.9-3.2-13.3c-1.1-3.6,0.7-4.2,3.5-3.9c12.4,1,24.9,1.9,37.3,2.9
			C284.3,249.8,294.3,250.6,305,251.5z"/>
		<path class="st0" d="M334,308c-2.3-19.1-4.4-36.8-6.5-55c7.9,0.4,14.7,0.6,21.6,1.1c6,0.5,12,1.4,18.1,1.9
			c6.7,0.5,13.5,0.7,20.3,1.1c4.3,0.3,8.6,0.5,12.8,1.1c1.1,0.2,2.7,2.1,2.7,3.2c-0.4,9.5-1.2,19-1.7,28.6c-0.3,5-0.1,10-0.1,15
			c0,2.6-0.5,3.8-3.7,3.4c-3.9-0.5-8-0.2-12-0.2C368.5,308,351.6,308,334,308z"/>
		<path class="st0" d="M147.4,240.3c8.9,0.6,16.4,1.1,23.9,1.7c11.8,0.9,23.5,2.1,35.3,2.8c2.9,0.2,3.6,1.8,4.1,3.7
			c4.1,17.6,8.2,35.1,12.2,52.7c0.2,1.1,0,2.2,0,2.8c-12.5,0-24.5,0-36.6,0c-5,0-10,0.2-15-0.2c-1.5-0.1-3.8-1.5-4.2-2.8
			c-4.9-14.6-9.5-29.3-14.3-44C151.2,251.6,149.3,246.2,147.4,240.3z"/>
		<path class="st0" d="M251.7,328c9.6,0,17.7-0.1,25.8,0c11.2,0.2,22.5,0.6,33.7,1.1c1.3,0.1,3.5,1.6,3.6,2.7
			c1.6,12.2,2.8,24.4,4.2,36.6c0.6,5,1.4,10,2.2,15.4c-18.8,0.8-37.2,1.6-56,2.4C260.7,366.6,256.2,347.4,251.7,328z"/>
		<path class="st0" d="M396.7,381c-17.9,0.7-35.4,1.5-53.4,2.2c-2.2-18.1-4.3-35.9-6.6-54.7c9.2,0.5,17.6,1.2,25.9,1.4
			c10.1,0.2,20.3,0.1,30.5,0.1c1.2,0,2.3-0.1,3.5,0.1c2.8,0.3,3.9,1.9,3.5,4.7c-0.5,3.2-0.8,6.5-1,9.8c-0.4,10.3-0.6,20.5-1.1,30.8
			C397.9,377.1,397.2,378.8,396.7,381z"/>
		<path class="st0" d="M242.9,388c-11.2,0-21.1-0.1-31,0c-3.4,0-6.9,0.6-10.3,0.9c-3.5,0.4-6.1,0.1-7.4-4.2
			c-5.7-18.3-11.8-36.5-17.7-54.7c-0.3-1.1-0.4-2.2-0.7-3.5c17.6,0,34.9,0,52.9,0C233.4,346.8,238,366.6,242.9,388z"/>
		<path class="st0" d="M422.6,310c0.8-17.6,1.6-33.5,2.3-48.9c9.4,0,18.2-0.2,27.1,0.1c6.5,0.2,13.1,1.3,19.6,1.8
			c5.8,0.5,11.5,0.6,17.3,1.2c0.9,0.1,2.5,2.1,2.3,2.9c-2.3,13.2-4.9,26.3-7.1,39.4c-0.5,2.9-1.6,3.5-4.2,3.5
			C461.2,310,442.4,310,422.6,310z"/>
		<path class="st0" d="M290.7,479.9c-1.3,2.4-1.9,4.2-3,5.7c-8.3,10.8-16,22-25.2,32c-6.7,7.2-14.5,13.8-24.4,16.8
			c-0.8,0.2-1.6,0.6-2.3,0.6c-9.8,0-19.6,0-30.5,0c11.1-14.9,17.8-30.7,18.7-49C246.1,484,267.9,482,290.7,479.9z"/>
		<path class="st0" d="M421.7,330.6c19.9,0.5,38.4,1,57.9,1.6c-2.7,15.4-5.3,30.2-8.1,46c-16.7,0.7-33.8,1.4-51.8,2.1
			C420.4,363.3,421,347.1,421.7,330.6z"/>
		<path class="st0" d="M329,454.8c-10.2,0.8-19.9,1.4-29.6,2.2c-4.7,0.4-9.5,1.1-14.2,1.2c-1.4,0-3.7-1.4-4-2.6
			c-3.5-14.5-6.8-29.1-10.1-43.7c-0.2-1.1,0-2.3,0-3.7c6.3-0.4,12.4-0.9,18.4-1.2c9.3-0.4,18.5-0.4,27.8-1.1
			c4.8-0.4,7.1,1.2,7.6,5.8c1.4,13.2,2.8,26.4,4.2,39.6C329.1,452.3,329,453.3,329,454.8z"/>
		<path class="st0" d="M220.6,464.3c-5.9-18.1-11.7-35.6-17.5-53.3c1.2-0.4,2.1-0.9,3-0.9c11.9-0.4,23.8-0.6,35.7-1.1
			c4.4-0.2,6.6,0.6,7.5,5.9c2.3,12.8,5.7,25.3,8.8,37.9c1.6,6.8,1.7,7.2-5.3,8.2C242.1,462.4,231.3,463.2,220.6,464.3z"/>
		<path class="st0" d="M395,402.9c0,14.8,0.1,28.7-0.1,42.6c0,1.2-1.5,3.2-2.5,3.4c-6.6,1-13.3,1.6-20,2.1
			c-6.9,0.6-13.8,0.9-20.8,1.3c-1.9-15.9-3.7-31.3-5.6-47.1C362.6,404.4,379,403.6,395,402.9z"/>
		<path class="st0" d="M418,446.6c0-14-0.1-27.7,0.2-41.5c0-1.1,2.4-3,3.8-3.1c11.7-0.6,23.5-0.8,35.3-1.2c2-0.1,3.9-0.3,5.9-0.5
			c2.5-0.3,4.4,0.5,3.9,3.3c-2.2,12.5-4.5,25-7.1,37.4c-0.2,1.1-2.2,2.6-3.4,2.7C443.5,444.9,430.6,445.8,418,446.6z"/>
		<path class="st0" d="M559.4,268.9c-2.2,8-4.1,15.2-6.1,22.4c-1.4,5.2-2.9,10.3-4.4,15.5c-0.7,2.5-1.7,4.4-5,4.3
			c-10.5-0.2-20.9,0-31.4-0.1c-4.1,0-7.2-0.2-5.7-6.4c2.7-11.7,4.1-23.7,6.4-35.6c0.2-1.2,2.7-3,4-2.9c12,0.7,23.9,1.8,35.8,2.8
			C554.9,269.1,556.7,268.9,559.4,268.9z"/>
		<path class="st0" d="M528.5,376.4c-11.6,0-22.8,0-34.6,0c2.7-14.7,5.3-29.4,7.9-43.4c13.4,0,26,0,39.3,0
			C536.8,348,532.8,361.8,528.5,376.4z"/>
		<path class="st0" d="M448.3,599c-11.6,1.3-21.3-10.4-21.2-20.5c0.1-11.3,8.7-21.3,21.4-21.6c12-0.2,21,8.9,21.3,20.9
			C470.1,589,460.4,600.2,448.3,599z"/>
		<path class="st0" d="M163.8,599c-9,1.4-21-8.9-20.9-21c0.2-11,9.3-21.1,21.3-21.1c12.9,0,21.2,9.9,21.4,21.4
			C186,589.3,177.2,599.7,163.8,599z"/>
		<path class="st0" d="M482.4,441.4c1.4-7.9,2.5-14.6,3.7-21.4c1-5.5,1.7-11,3.1-16.3c0.5-1.8,2.5-4.3,3.9-4.4
			c8.2-0.8,16.5-0.9,24.8-1.2c1.3,0,2.7,0.5,4.3,0.9c-3.8,12.7-7.4,24.8-11.1,36.9c-0.4,1.2-1.5,2.9-2.5,3
			C500.2,439.8,491.9,440.5,482.4,441.4z"/>
	</g>
</g>
</svg>
