<?xml version="1.0" encoding="utf-8"?><svg xmlns="http://www.w3.org/2000/svg" xmlns:xlink="http://www.w3.org/1999/xlink"><symbol viewBox="0 0 470.047 470.047" id="3balloons"><path d="M467.61 226.595c-5.796-25.859-21.315-47.913-43.699-62.099-12.326-7.812-25.871-12.722-40.258-14.592a7.5 7.5 0 1 0-1.933 14.875c12.203 1.586 23.696 5.754 34.162 12.387 19 12.042 32.172 30.761 37.092 52.71 4.92 21.949.998 44.5-11.044 63.499-11.252 17.755-32.752 32.699-62.174 43.215-22.668 8.103-49.363 13.269-74.03 14.383-6.507-15.601-11.879-33.394-15.267-50.663a7.5 7.5 0 0 0-14.72 2.888c3.454 17.604 8.87 35.746 15.442 51.848l-15.636 7.69a7.499 7.499 0 0 0-.705 13.065l6.762 4.286L242.523 438V335.55h9.357a7.5 7.5 0 0 0 0-15h-20.336l9.038-14.781c29.556-19.926 58.782-47.092 80.386-74.778 27.73-35.539 42.388-71.029 42.388-102.636C363.356 57.592 305.787.023 235.024.023s-128.333 57.57-128.333 128.333c0 31.606 14.657 67.097 42.388 102.636 20.492 26.262 47.843 52.067 75.829 71.659l-13.139 21.488a7.502 7.502 0 0 0 6.398 11.413h9.356V438l-39.079-57.913 6.762-4.286a7.5 7.5 0 1 0-8.03-12.67l-10.314 6.537-.153-9.524c7.54-17.309 13.774-37.454 17.598-56.947a7.501 7.501 0 0 0-14.72-2.888c-3.389 17.271-8.76 35.063-15.267 50.663-24.667-1.114-51.361-6.28-74.03-14.383-29.422-10.517-50.921-25.46-62.174-43.215-12.042-18.999-15.964-41.55-11.044-63.499s18.093-40.668 37.092-52.71c10.466-6.633 21.959-10.801 34.162-12.387a7.5 7.5 0 0 0 6.471-8.404c-.535-4.108-4.297-7.007-8.404-6.471-14.387 1.871-27.932 6.78-40.258 14.592-22.383 14.187-37.902 36.24-43.698 62.099-5.796 25.858-1.175 52.427 13.011 74.81 13.06 20.606 37.194 37.657 69.795 49.31 23.452 8.383 50.957 13.787 76.556 15.139l.28 17.432a7.497 7.497 0 0 0 7.499 7.379 7.506 7.506 0 0 0 4.016-1.165l2.176-1.379 53.026 78.583c.161.239.338.465.524.683.056.066.116.128.174.191a7.776 7.776 0 0 0 .62.607c.16.139.326.27.498.395.053.038.103.08.156.117.233.161.474.309.725.444.02.011.041.019.062.03.228.119.463.225.703.321.066.026.133.049.2.073.2.073.403.137.61.193.079.021.158.042.238.061.206.048.414.086.626.117.076.011.151.026.228.035.284.033.571.053.863.053s.579-.021.863-.053c.077-.009.152-.024.228-.035.212-.031.42-.069.626-.117.08-.019.159-.04.239-.061.207-.056.41-.12.609-.193.067-.024.134-.047.2-.073a7.45 7.45 0 0 0 .703-.321c.02-.011.041-.019.062-.03.251-.134.492-.283.725-.444.054-.037.104-.079.156-.117a7.28 7.28 0 0 0 .497-.394c.071-.061.139-.125.208-.189.143-.134.28-.274.413-.419.058-.064.118-.126.174-.192a7.58 7.58 0 0 0 .524-.683l53.026-78.582 2.176 1.379a7.495 7.495 0 0 0 10.35-2.32 7.5 7.5 0 0 0-2.32-10.35l-10.314-6.537 8.559-4.21c27.122-.813 56.929-6.38 82.076-15.369 32.601-11.653 56.735-28.704 69.795-49.31 14.187-22.382 18.808-48.95 13.012-74.808zm-306.705-4.831c-25.654-32.877-39.213-65.177-39.213-93.408 0-62.492 50.84-113.332 113.332-113.332s113.332 50.84 113.332 113.332c0 28.231-13.56 60.531-39.213 93.408-19.984 25.611-46.792 50.776-74.119 69.656-27.327-18.88-54.135-44.045-74.119-69.656z"/><path d="M70.225 202.505a7.5 7.5 0 0 0-8.03-12.67c-32.233 20.43-41.836 63.275-21.407 95.51a7.495 7.495 0 0 0 10.349 2.32 7.5 7.5 0 0 0 2.32-10.35c-16.001-25.248-8.479-58.808 16.768-74.81zM242.523 37.524a7.5 7.5 0 0 0-7.5-7.5c-54.212 0-98.324 44.105-98.332 98.318a7.5 7.5 0 0 0 15 .002c.007-45.943 37.389-83.32 83.332-83.32a7.5 7.5 0 0 0 7.5-7.5z"/></symbol><symbol viewBox="0 0 64 64" id="balloon"><path d="M57.723 51.877c-.497-.923-.497-2.125-.422-3.287l.032-.466c.086-1.223.175-2.487-.178-3.759a5.105 5.105 0 0 0-.465-1.126 4.744 4.744 0 0 0-.9-1.149 7.299 7.299 0 0 0 .063-3.683c-.426-1.715-1.506-3.218-2.933-4.237 3.27-1.649 5.58-5.584 5.58-10.17 0-5.903-3.828-10.722-8.607-10.976C48.562 8.793 45.266 6 41.5 6c-.322 0-.64.028-.954.068C39.029 2.362 35.929 0 32.5 0c-3.43 0-6.529 2.362-8.046 6.068A7.542 7.542 0 0 0 23.5 6c-3.766 0-7.062 2.793-8.393 7.024C10.327 13.279 6.5 18.097 6.5 24c0 5.303 3.087 9.742 7.18 10.773.309 1.228.46 2.883.529 3.642.251 2.76-.316 5.313-1.547 7.179-.284-.993-.874-2.345-2.284-2.747-.723-.207-1.527-.063-2.201.393-.745.503-1.243 1.314-1.332 2.17-.146 1.399.679 2.849 2.053 3.608.839.463 1.726.587 2.496.349l.074-.024.246 1.102c.259 1.155.613 2.738 1.731 3.835a3.645 3.645 0 0 0 2.504 1.014c.093 0 .186-.004.279-.012.828-.071 1.533-.455 1.983-1.081l-1.624-1.168c-.107.149-.285.235-.53.256a1.62 1.62 0 0 1-1.211-.436c-.646-.634-.906-1.621-1.18-2.845l-.433-1.938c2.221-2.302 3.324-5.916 2.968-9.836a47.524 47.524 0 0 0-.21-1.887l12.824 17.351c-.986-.407-2.025-.698-2.982-.698-2.875 0-4.333 1.346-4.333 4s1.458 4 4.333 4c1.086 0 2.276-.376 3.377-.869l-1.543 2.314 1.664 1.109 2.169-3.251V64h2v-3.697l2.168 3.252 1.664-1.109-1.543-2.314c1.101.492 2.292.868 3.377.868 2.876 0 4.334-1.346 4.334-4s-1.458-4-4.334-4c-.956 0-1.995.291-2.982.697l13.844-18.73c.044-.003.089-.004.133-.008l-.012.043c1.799.511 3.311 2.073 3.763 3.888a5.24 5.24 0 0 1 .049 2.251 3.04 3.04 0 0 0-2.528.762 3.05 3.05 0 0 0-.975 2.128c-.015.44.07.838.25 1.181.254.483.687.825 1.189.941.685.155 1.444-.122 2.033-.748.368-.392.692-.816.968-1.265l.046.08c.122.217.217.447.282.682.261.94.188 1.981.11 3.083l-.033.479c-.093 1.458-.079 2.996.658 4.363.851 1.579 2.589 2.569 4.362 2.569.308 0 .616-.03.921-.092l-.396-1.96c-1.198.242-2.544-.388-3.125-1.467zm-46.918-4.421c-.239.074-.591.004-.94-.189-.659-.364-1.092-1.058-1.03-1.649.028-.267.209-.549.463-.721a.76.76 0 0 1 .407-.143c.041 0 .083.005.126.018.589.168.886 1.208 1.058 1.977l.135.603a1.08 1.08 0 0 1-.219.104zM23.5 21c2.014 0 3.885 1.104 5.218 3.032C25.642 25.783 23.5 29.587 23.5 34c0 1.765.35 3.429.957 4.909A5.48 5.48 0 0 1 23.5 39c-3.86 0-7-4.038-7-9s3.14-9 7-9zm9-6c2.538 0 4.856 1.796 6.09 4.616-1.647.69-3.113 1.937-4.194 3.635A7.388 7.388 0 0 0 32.5 23c-.653 0-1.287.09-1.901.252-1.083-1.7-2.545-2.957-4.186-3.645C27.648 16.792 29.964 15 32.5 15zm9 6c3.86 0 7 4.038 7 9s-3.14 9-7 9c-.322 0-.641-.035-.958-.091.608-1.48.958-3.144.958-4.909 0-4.411-2.14-8.213-5.213-9.965C37.605 22.14 39.499 21 41.5 21zm-9 4c3.86 0 7 4.038 7 9s-3.14 9-7 9-7-4.038-7-9 3.14-9 7-9zm-1 19.928v7.017l-3.46-8.403c1.042.73 2.211 1.216 3.46 1.386zm2 0c1.249-.17 2.418-.656 3.46-1.387l-3.46 8.404v-7.017zM23.5 41c.43 0 .858-.045 1.281-.119l3.713 9.017-6.732-9.108c.563.135 1.143.21 1.738.21zm16.719-.119c.423.074.85.119 1.281.119.595 0 1.175-.075 1.738-.21l-6.732 9.108 3.713-9.017zM56.5 24c0 4.676-2.789 8.528-6.34 8.957.216-.943.34-1.932.34-2.957 0-5.205-2.977-9.567-6.957-10.703C44.809 16.657 47.056 15 49.5 15c3.86 0 7 4.038 7 9zm-8.663-10.805c-2.726.622-5.084 2.747-6.358 5.807a7.396 7.396 0 0 0-.93.076c-1.125-2.754-3.122-4.767-5.481-5.622C36.166 10.162 38.673 8 41.5 8c2.751 0 5.197 2.049 6.337 5.195zM32.5 2c2.53 0 4.841 1.784 6.079 4.588-2.485 1.029-4.502 3.351-5.473 6.44A7.188 7.188 0 0 0 32.5 13c-.204 0-.405.011-.606.027-.971-3.089-2.988-5.41-5.472-6.439C27.658 3.784 29.97 2 32.5 2zm-9 6c2.827 0 5.334 2.162 6.431 5.456-2.357.854-4.353 2.863-5.478 5.613a7.267 7.267 0 0 0-.933-.068c-1.273-3.06-3.632-5.184-6.358-5.807C18.303 10.049 20.749 8 23.5 8zm-15 16c0-4.962 3.14-9 7-9 2.444 0 4.691 1.657 5.956 4.297C17.477 20.433 14.5 24.795 14.5 30c0 1.025.124 2.014.34 2.957C11.289 32.528 8.5 28.676 8.5 24zm15 33c0-1.171.167-2 2.333-2 1.469 0 3.536 1.11 4.918 2-1.38.89-3.444 2-4.918 2-2.166 0-2.333-.829-2.333-2zm18 0c0 1.171-.168 2-2.334 2-1.469 0-3.536-1.11-4.918-2 1.38-.89 3.444-2 4.918-2 2.166 0 2.334.829 2.334 2zm10.974-12.965a.192.192 0 0 1-.014.015c.021-.254.142-.504.329-.677a1.03 1.03 0 0 1 .368-.217c-.198.31-.426.605-.683.879zM53.58 10.25c-.255-.417.051-1.141.524-1.732.225.54.589 1.01 1.076 1.339.731.496 1.727.582 2.598.226.807-.33 1.36-.97 1.519-1.756.146-.722-.051-1.458-.554-2.071a3.194 3.194 0 0 0-1.45-.988c.157-.081.325-.153.501-.216.645-.232 1.298-.315 1.89-.247l.239-1.985c-.899-.108-1.871.012-2.808.35-1.412.51-2.467 1.421-2.97 2.567-.016.035-.03.07-.044.106a6.946 6.946 0 0 0-1.235 1.055c-1.081 1.143-1.909 2.9-.992 4.398l1.706-1.046zm2.778-3.138c.295 0 .639.169.838.412.081.099.172.251.141.407-.035.174-.25.274-.316.301-.248.102-.544.091-.719-.03-.288-.195-.452-.587-.457-1.004.169-.054.34-.085.513-.086zM7.375 7.103c.706.857 1.134 2.167.632 3.158a.552.552 0 0 1-.08.13s.009-.009.026-.02l1.064 1.693c.314-.197.567-.492.773-.901.991-1.959.175-4.205-1.073-5.562a5.42 5.42 0 0 0-1.156-.966 5.6 5.6 0 0 0-1.717-3.118C4.734.496 2.986 0 .5 0v2c1.934 0 3.276.332 3.989.989.333.307.601.674.795 1.07-1.075.106-2.045.749-2.447 1.679-.297.689-.242 1.51.147 2.197.357.631.945 1.044 1.615 1.134 1.297.175 2.344-.827 2.776-1.966zm-1.817-.877c-.124.497-.498.883-.693.86-.033-.004-.091-.049-.141-.137-.076-.134-.097-.31-.05-.419.122-.284.518-.486.921-.486h.002c-.011.06-.024.122-.039.182zM2.5 17h2v2h-2zm12-13h2v2h-2z"/><path d="M7.5 36h2v2h-2zm-7-1h2v2h-2zm46-32h2v2h-2zm12 11h2v2h-2zm-14 32h2v2h-2zm4 3h2v2h-2zm-4 2h2v2h-2zm-38 2h2v2h-2zm-4 2h2v2h-2zm0-12h2v2h-2zm56-7h2v2h-2zm-25 1h2v2h-2zm2-4h2v2h-2zm26-4h2v2h-2zm-12 27h2v2h-2zm4 0h2v2h-2zm-8 0h2v2h-2z"/></symbol><symbol viewBox="0 0 54.209 54.209" id="bowl"><path d="M54.203 29.135L54 27.187v-1.948c0-.596-.179-1.076-.531-1.426-.593-.589-1.419-.587-2.212-.575H27.251L6.447 1.943C5.306.802 3.648.651 2.583 1.56l-.256.121-.122.123c-1.1 1.101-1.101 3.343-.009 4.435l16.6 17H2.744c-.796 0-1.62-.015-2.212.575-.353.349-.532.829-.532 1.425v2c0 .033.008.07.009.103H.005l.023.217c.01.115.015.228.036.348l.146 1.404C.255 42.28 12.348 53.24 27.208 53.24c14.888 0 27-11.001 27-24.001l-.005-.104zm-2.931-3.896c.225 0 .54-.006.728.018v1.982c0 .82-.68 1.956-1 2h-7v-4h7.272zM35.5 27.197c-1.93 0-3.5 1.561-3.5 3.479v2.479c0 .815-.673 1.479-1.5 1.479s-1.5-.662-1.5-1.478v-7.918h13v13.703c0 .815-.673 1.479-1.5 1.479s-1.5-.663-1.5-1.478v-8.265c0-1.919-1.57-3.48-3.5-3.48zM3.619 4.833c-.295-.295-.322-1.122-.08-1.513l.192-.09.123-.123c.278-.276.834-.095 1.17.242l19.429 19.889h-2.862L3.619 4.833zm-.891 20.405H27v4H3.003c-.275-.037-.805-.865-.958-1.617L2 27.187v-1.93a6.32 6.32 0 0 1 .728-.019zm24.481 26.001c-13.062 0-23.809-8.98-24.902-20.131.22.08.45.13.693.13h24v1.918c0 1.918 1.57 3.479 3.5 3.479s3.5-1.561 3.5-3.479v-2.479c0-.815.673-1.479 1.5-1.479s1.5.664 1.5 1.479v8.265c0 1.918 1.57 3.479 3.5 3.479S44 40.86 44 38.942v-7.703h7c.412 0 .788-.137 1.13-.351-.972 11.252-11.773 20.351-24.921 20.351z"/><path d="M26.37 47.467c-5.445-.558-10.426-2.707-14.025-6.052a1 1 0 1 0-1.361 1.465c3.916 3.639 9.307 5.975 15.182 6.577a1 1 0 0 0 .204-1.99zM8.161 37.213a1 1 0 1 0-1.602 1.197c.354.474.753.911 1.188 1.302a.995.995 0 0 0 1.412-.074 1 1 0 0 0-.075-1.412 7.175 7.175 0 0 1-.923-1.013z"/></symbol><symbol viewBox="0 0 60 60" id="box"><path d="M49.554 0H10.446L0 16.713V60h60V16.713L49.554 0zm-1.108 2l8.75 14H37V2h11.446zM30 2h5v14H25V2h5zm3.93 21.656A.992.992 0 0 0 33 23a1 1 0 0 0-1 1c0 .43.274.789.656.93l-1.725 1.725C30.789 26.274 30.43 26 30 26s-.789.274-.93.656l-1.725-1.725A.994.994 0 0 0 27 23a.992.992 0 0 0-.93.656l-.07-.07-1 1V18h1a1 1 0 0 0 2 0h4a1 1 0 0 0 2 0h1v6.586l-1-1-.07.07zM11.554 2H23v14H2.804l8.75-14zM25 58v-3.586l1 1 4-4 4 4 1-1V58H25zm12 0v-8.414l-3 3-4-4-4 4-3-3V58H2V18h21v11.414l3-3 4 4 4-4 3 3V18h21v40H37z"/><circle cx="30" cy="3" r="1"/><circle cx="27" cy="6" r="1"/><circle cx="27" cy="12" r="1"/><circle cx="30" cy="9" r="1"/><circle cx="33" cy="6" r="1"/><circle cx="33" cy="12" r="1"/><circle cx="30" cy="15" r="1"/><circle cx="30" cy="21" r="1"/></symbol><symbol viewBox="0 0 467.849 467.849" id="cake"><path d="M437.117 411.367a10 10 0 0 0-8.559-4.828h-40.627l8.536-135.933a35.064 35.064 0 0 0-21.695-34.654 373.963 373.963 0 0 0-32.601-11.634v-90.671c0-14.497-8.666-27.421-22.078-32.924a228.133 228.133 0 0 0-25.624-8.777l10.025-48.708c2.825-13.723-4.543-27.516-17.521-32.798-34.209-13.92-71.888-13.919-106.098 0-12.977 5.28-20.346 19.073-17.521 32.796l10.025 48.71a227.848 227.848 0 0 0-25.623 8.777c-13.412 5.503-22.079 18.427-22.079 32.924v90.671a373.771 373.771 0 0 0-32.602 11.634 35.064 35.064 0 0 0-21.694 34.654l8.536 135.933H39.29a10 10 0 0 0-8.853 14.65l21.697 41.31a10 10 0 0 0 8.853 5.35h345.874c3.716 0 7.125-2.061 8.854-5.35l21.697-41.31a10 10 0 0 0-.295-9.822zm-100.689-18.815c16.471 0 29.871-13.4 29.871-29.871V329.25c0-4.29 2.995-7.886 7.001-8.83l-5.407 86.119h-81.078V301.248c0-5.443 4.428-9.871 9.871-9.871s9.871 4.428 9.871 9.871v61.432c0 16.472 13.4 29.872 29.871 29.872zM182.943 39.204a9.079 9.079 0 0 1 5.47-10.239 121.929 121.929 0 0 1 17.786-5.692V36.37c0 5.523 4.477 10 10 10s10-4.477 10-10V20.266c17.971-1.165 36.11 1.73 53.236 8.699a9.077 9.077 0 0 1 5.47 10.239l-9.934 48.266a224.883 224.883 0 0 0-15.792-2.326c.004-.119.018-.235.018-.355v-7.92c0-5.523-4.478-10-10-10s-10 4.477-10 10v6.928a226.864 226.864 0 0 0-46.319 3.675l-9.935-48.268zm-37.266 94.443c0-6.35 3.796-12.011 9.67-14.421a209.02 209.02 0 0 1 37.352-11.389v32.686c0 5.523 4.477 10 10 10s10-4.477 10-10v-35.774c29.133-3.038 58.675.194 86.932 9.692a9.983 9.983 0 0 0-.437 2.925v23.578c0 5.523 4.478 10 10 10s10-4.477 10-10v-16.461a15.548 15.548 0 0 1 2.978 9.164v85.16a367.659 367.659 0 0 0-37.476-7.141v-31.304c0-5.523-4.478-10-10-10s-10 4.477-10 10v29.106a371.159 371.159 0 0 0-93.995 4.107v-12.213c0-5.523-4.477-10-10-10s-10 4.477-10 10v16.262c-1.677.386-3.353.774-5.024 1.184v-85.161zm-45.009 120.808c42.492-17.435 87.326-26.275 133.256-26.275 45.93 0 90.764 8.84 133.256 26.275a15.074 15.074 0 0 1 9.326 14.897l-1.937 30.84c-15.661.43-28.271 13.294-28.271 29.058v33.431c0 5.443-4.428 9.871-9.871 9.871s-9.871-4.428-9.871-9.871v-61.432c0-16.471-13.4-29.871-29.871-29.871s-29.871 13.4-29.871 29.871V406.54h-19.743v-67.791c0-16.471-13.4-29.871-29.871-29.871-16.471 0-29.871 13.4-29.871 29.871v30.605c0 5.443-4.428 9.871-9.871 9.871-5.443 0-9.872-4.428-9.872-9.871v-42.087c0-16.471-13.4-29.872-29.871-29.872s-29.871 13.4-29.871 29.872l.002 43.617c0 5.317-4.235 9.653-9.511 9.845l-6.994-111.378a15.073 15.073 0 0 1 9.327-14.896zM99.59 400.703c15.723-.843 28.256-13.894 28.256-29.819l-.002-43.617c0-5.443 4.428-9.872 9.871-9.872s9.871 4.428 9.871 9.872v42.087c0 16.471 13.4 29.871 29.872 29.871s29.871-13.4 29.871-29.871v-30.605c0-5.443 4.428-9.871 9.871-9.871s9.871 4.428 9.871 9.871v67.791H99.957l-.367-5.837zm301.228 47.146H67.031l-11.193-21.31h356.173l-11.193 21.31z"/><path d="M274.696 154.365c5.522 0 10-4.477 10-10v-7.92c0-5.523-4.478-10-10-10s-10 4.477-10 10v7.92c0 5.522 4.478 10 10 10z"/></symbol><symbol viewBox="0 0 459.529 459.529" id="cart"><path d="M17 55.231h48.733l69.417 251.033c1.983 7.367 8.783 12.467 16.433 12.467h213.35c6.8 0 12.75-3.967 15.583-10.2l77.633-178.5c2.267-5.383 1.7-11.333-1.417-16.15-3.117-4.817-8.5-7.65-14.167-7.65H206.833c-9.35 0-17 7.65-17 17s7.65 17 17 17H416.5l-62.9 144.5H164.333L94.917 33.698c-1.983-7.367-8.783-12.467-16.433-12.467H17c-9.35 0-17 7.65-17 17s7.65 17 17 17zm118.433 383.067c21.25 0 38.533-17.283 38.533-38.533s-17.283-38.533-38.533-38.533S96.9 378.514 96.9 399.764s17.283 38.534 38.533 38.534zm240.834 0h2.833c10.2-.85 19.55-5.383 26.35-13.317 6.8-7.65 9.917-17.567 9.35-28.05-1.417-20.967-19.833-37.117-41.083-35.7-21.25 1.417-37.117 20.117-35.7 41.083 1.416 20.117 18.133 35.984 38.25 35.984z"/></symbol><symbol viewBox="291.3 335.3 11.1 19.4" shape-rendering="geometricPrecision" text-rendering="geometricPrecision" image-rendering="optimizeQuality" fill-rule="evenodd" clip-rule="evenodd" id="chevron_right"><path d="M292.7 354.7l-1.4-1.4 8.3-8.3-8.3-8.3 1.4-1.4 9.7 9.7z"/></symbol><symbol viewBox="0 0 469.868 469.868" id="cook-hat"><path d="M428.705 53.271c-26.587-26.587-61.937-41.229-99.537-41.229-35.151 0-68.336 12.798-94.233 36.188-25.897-23.391-59.083-36.188-94.233-36.188-37.6 0-72.95 14.642-99.537 41.229-54.885 54.885-54.885 144.189 0 199.074l16.893 16.893v181.089a7.5 7.5 0 0 0 7.5 7.5h338.755a7.5 7.5 0 0 0 7.5-7.5V269.238l16.893-16.893c54.883-54.885 54.883-144.189-.001-199.074zM73.057 442.827v-15h323.755v15H73.057zm345.041-201.089l-19.09 19.09a7.497 7.497 0 0 0-2.197 5.303v146.695H73.057V266.131c0-1.989-.79-3.897-2.197-5.303l-19.09-19.09c-49.036-49.036-49.036-128.824 0-177.861 23.754-23.754 55.337-36.836 88.931-36.836 31.081 0 60.435 11.206 83.466 31.694l-36.963 36.962a7.5 7.5 0 0 0 0 10.606 7.474 7.474 0 0 0 5.303 2.197 7.474 7.474 0 0 0 5.303-2.197l42.073-42.073c.061-.061.112-.126.17-.188.06-.057.124-.107.183-.166 23.754-23.754 55.337-36.836 88.93-36.836 33.594 0 65.176 13.082 88.931 36.836 49.037 49.038 49.037 128.826.001 177.862z"/><path d="M374.312 258.631h-44.133l27.41-65.639a7.5 7.5 0 1 0-13.842-5.78l-29.824 71.419h-71.488v-68.529a7.5 7.5 0 0 0-15 0v68.529h-71.488l-29.824-71.419a7.5 7.5 0 0 0-13.842 5.78l27.41 65.639H95.557a7.5 7.5 0 0 0 0 15h278.755a7.5 7.5 0 0 0 0-15z"/></symbol><symbol viewBox="0 0 485.411 485.411" id="e-mail-envelope"><path d="M0 81.824v321.763h485.411V81.824H0zm242.708 198.702L43.612 105.691h398.187L242.708 280.526zm-79.311-37.877L23.867 365.178V120.119l139.53 122.53zm18.085 15.884l61.22 53.762 61.22-53.762L441.924 379.72H43.487l137.995-121.187zm140.526-15.878l139.535-122.536v245.059L322.008 242.655z"/></symbol><symbol viewBox="0 0 383 383" shape-rendering="geometricPrecision" text-rendering="geometricPrecision" image-rendering="optimizeQuality" fill-rule="evenodd" clip-rule="evenodd" id="fb"><defs><style>.ajfil1{fill:#fefefe}.fil0{fill:#6b84c1}</style></defs><g id="ajСлой_x0020_1"><path class="ajfil1" d="M208 147v-18c0-9 6-11 10-11h26V79h-35c-39 0-48 29-48 47v21h-22v45h22v114h46V192h33l2-18 3-27h-37z" id="aj_154561329328"/></g></symbol><symbol viewBox="0 0 979.494 979.494" id="heart"><path d="M964.616 227.519c-15.63-44.595-43.082-84.824-79.389-116.338-36.341-31.543-80.051-53.048-126.404-62.188-17.464-3.444-35.421-5.19-53.371-5.19-52.371 0-103.306 14.809-147.296 42.827a275.546 275.546 0 0 0-68.908 62.484 275.529 275.529 0 0 0-68.859-62.364c-43.969-27.977-94.869-42.765-147.2-42.765h-.001c-43.604 0-87.367 10.77-126.546 31.143-39.15 20.358-73.104 49.978-98.188 85.658C22.752 197.343 7.096 238.278 1.92 282.453-2.612 321.14.888 362.67 12.325 405.889c22.656 85.615 72.803 163.707 110.882 214.142 82.795 109.659 196.636 209.196 348.028 304.301l18.085 11.36 18.086-11.36c186.218-116.982 316.196-240.49 397.358-377.583 46.678-78.844 70.994-149.084 74.343-214.733 1.865-36.587-3.011-71.745-14.491-104.497zM489.322 855.248c-135.253-87.096-237.398-177.586-311.846-276.192-34.407-45.571-79.583-115.623-99.414-190.562-9.245-34.937-12.14-67.951-8.604-98.128 3.846-32.824 15.494-63.262 34.623-90.47 18.844-26.803 44.41-49.085 73.932-64.436 29.533-15.357 62.444-23.474 95.176-23.474 39.377 0 77.654 11.113 110.692 32.136 32.204 20.492 58.094 49.399 74.868 83.596l30.559 62.292 30.505-62.318c16.759-34.238 42.648-63.183 74.872-83.705 33.057-21.054 71.358-32.182 110.767-32.182 13.544 0 27.074 1.314 40.216 3.905 34.739 6.85 67.585 23.042 94.986 46.826 27.39 23.774 48.064 54.023 59.79 87.476 8.547 24.385 12.164 50.811 10.75 78.542-2.772 54.379-24.017 114.42-64.944 183.553-72.912 123.155-189.793 235.552-356.928 343.141z"/></symbol><symbol viewBox="0 0 450.222 450.222" id="holiday"><path d="M333.515 225.194a7.5 7.5 0 0 0-7.089-5.318 7.46 7.46 0 0 0-7.21 5.152l-66.679 202.378a7.5 7.5 0 0 0 4.191 9.25c21.298 9.044 44.162 13.565 67.026 13.565s45.729-4.521 67.026-13.565a7.5 7.5 0 0 0 4.244-9.084l-61.509-202.378zM268.991 425.4l57.06-173.183 52.619 173.126c-35.199 13.163-74.466 13.182-109.679.057zm-9.48-156.305c-10.045 8.161-16.255 19.751-17.486 32.636s2.671 25.441 10.988 35.358a7.481 7.481 0 0 0 5.75 2.68 7.5 7.5 0 0 0 5.742-12.319c-5.714-6.813-8.395-15.44-7.549-24.292s5.112-16.814 12.014-22.421c10.104-8.208 16.32-19.869 17.505-32.833 1.181-12.911-2.784-25.453-11.161-35.339 41.857-8.592 73.827-52.633 73.827-105.515C349.141 48.022 309.318 0 260.37 0c-32.72 0-62.887 21.961-78.236 56.42a74.522 74.522 0 0 0-6.146-.261c-48.95 0-88.774 48.021-88.774 107.048 0 57.596 37.92 104.706 85.235 106.955l6.97 8.174c5.804 6.805 8.552 15.458 7.737 24.364s-5.085 16.917-12.026 22.556c-10.045 8.162-16.255 19.751-17.486 32.636s2.671 25.441 10.988 35.358l25.613 30.54a7.482 7.482 0 0 0 5.75 2.681 7.5 7.5 0 0 0 5.742-12.319l-25.613-30.54c-5.714-6.813-8.395-15.44-7.549-24.292s5.112-16.814 12.014-22.421c10.104-8.208 16.32-19.869 17.505-32.832 1.181-12.909-2.783-25.45-11.159-35.336 27.373-5.62 50.515-26.398 63.255-54.899.877.073 1.757.124 2.637.166l6.974 8.178c5.803 6.805 8.551 15.458 7.736 24.364s-5.085 16.916-12.026 22.555zM260.37 15c40.677 0 73.771 41.293 73.771 92.05 0 50.751-33.094 92.04-73.771 92.04-.247 0-.493-.012-.74-.015 3.318-11.219 5.132-23.292 5.132-35.868 0-50.154-28.754-92.355-67.425-103.911C210.631 32.129 234.641 15 260.37 15zm-84.383 240.255c-40.68 0-73.774-41.292-73.774-92.048s33.095-92.048 73.774-92.048 73.774 41.292 73.774 92.048c.001 50.755-33.094 92.048-73.774 92.048z"/><path d="M321.204 336.098c-1.722-4.067-6.711-5.837-10.588-3.667-4.306 2.41-5.042 8.346-1.643 11.848 2.443 2.368 6.196 2.875 9.141 1.134 3.166-1.873 4.494-5.921 3.09-9.315-.19-.45.19.46 0 0zm12.15 41.74c1.165 2.769 3.903 4.628 6.92 4.63 3.063.001 5.872-1.927 6.989-4.772 1.132-2.883.317-6.273-2.003-8.331-2.406-2.134-5.998-2.482-8.771-.86-3.174 1.858-4.575 5.928-3.135 9.333.19.45-.19-.45 0 0zm-24.15 32.26c-1.245-2.94-4.272-4.851-7.476-4.606a7.567 7.567 0 0 0-6.672 5.481c-1.824 6.526 5.734 12.031 11.388 8.235 2.943-1.975 4.115-5.834 2.76-9.11-.19-.45.19.46 0 0zM51.583 33.667a7.5 7.5 0 0 0-10.607 10.606l9.5 9.5c1.465 1.465 3.385 2.197 5.304 2.197s3.839-.732 5.304-2.197a7.5 7.5 0 0 0 0-10.606l-9.501-9.5zM381.518 75.47a7.478 7.478 0 0 0 5.304-2.197l9.5-9.5a7.5 7.5 0 0 0-10.607-10.606l-9.5 9.5a7.5 7.5 0 0 0 5.303 12.803zm-97.854 79.396a7.496 7.496 0 0 0 10.275-2.633l6.845-11.561a7.501 7.501 0 0 0-12.908-7.643l-6.845 11.561a7.5 7.5 0 0 0 2.633 10.276zM126.93 342.6l-9.5 9.5a7.5 7.5 0 0 0 5.304 12.803 7.478 7.478 0 0 0 5.304-2.197l9.5-9.5a7.5 7.5 0 0 0 0-10.606 7.502 7.502 0 0 0-10.608 0zM50.501 229.002a7.5 7.5 0 0 0-7.5 7.5v13.435c0 4.142 3.357 7.5 7.5 7.5s7.5-3.358 7.5-7.5v-13.435a7.5 7.5 0 0 0-7.5-7.5zm353.442-31.814h-13.436c-4.143 0-7.5 3.358-7.5 7.5s3.357 7.5 7.5 7.5h13.436c4.143 0 7.5-3.358 7.5-7.5s-3.357-7.5-7.5-7.5zM167.579 92.728h-13.435c-4.143 0-7.5 3.358-7.5 7.5s3.357 7.5 7.5 7.5h13.435c4.143 0 7.5-3.358 7.5-7.5s-3.357-7.5-7.5-7.5z"/></symbol><symbol viewBox="0 0 594 594" shape-rendering="geometricPrecision" text-rendering="geometricPrecision" image-rendering="optimizeQuality" fill-rule="evenodd" clip-rule="evenodd" id="instagram"><defs><style>.amfil1{fill:#fefefe}.fil0{fill:#915233}</style></defs><path class="amfil1" d="M438 405c0 18-15 33-33 33H189c-19 0-34-15-34-33V261h53c-2 3-3 6-4 10-2 8-3 17-3 26 0 53 43 96 96 96s96-43 96-96c0-9-1-18-4-26-1-4-2-7-3-10h52v144zM247 261c11-16 29-26 50-26s39 10 50 26c1 2 3 4 4 6 5 9 8 19 8 30 0 34-28 62-62 62s-62-28-62-62c0-11 3-21 8-30 1-2 2-4 4-6zm177-99h8v59h-59l-1-59h52zm-19-41H189c-37 0-68 31-68 68v216c0 37 31 68 68 68h216c37 0 68-31 68-68V189c0-37-31-68-68-68z" id="amСлой_x0020_1"/></symbol><symbol viewBox="0 0 85.419 85.419" id="leaf"><path d="M85.278 33.669a.965.965 0 0 0 .118-.364c.005-.035.021-.064.022-.101.001-.034-.015-.065-.018-.098-.003-.033.008-.064.002-.098s-.027-.061-.037-.093a1.01 1.01 0 0 0-.174-.344.947.947 0 0 0-.285-.244 1.003 1.003 0 0 0-.366-.121c-.035-.004-.066-.021-.103-.023-19.463-.366-29.599 1.847-33.883 7.417-2.185 2.843-2.746 6.468-1.731 11.03-6.782 6.769-11.081 15.257-12.668 21.174-1.35-3.258-3.34-6.442-5.635-9.636 6.734-20.286-3.055-28.155-12.523-35.765C11.22 20.958 4.211 15.327 3.095 4.952c-.004-.038-.024-.067-.031-.102a.949.949 0 0 0-.16-.367.948.948 0 0 0-.408-.329.962.962 0 0 0-.208-.062c-.034-.007-.062-.026-.098-.029-.037-.004-.068.011-.103.011-.032 0-.06-.012-.094-.009-.031.003-.056.021-.088.027a.981.981 0 0 0-.716.592.924.924 0 0 0-.055.188c-.007.034-.026.062-.029.098-2.77 31.084-.401 47.495 7.923 54.874 3.227 2.861 7.291 4.28 12.316 4.28 2.221 0 4.631-.277 7.237-.83.08-.017.146-.06.217-.094 4.097 5.684 7.204 11.28 7.204 17.156a1 1 0 1 0 2 0c0-2.351-.446-4.632-1.21-6.872.07.016.142.026.211.026a1 1 0 0 0 .969-.758c1.367-5.469 5.278-13.456 11.509-19.965a.993.993 0 0 0 .729.791c2.481.638 4.652.923 6.574.923 8.249 0 11.895-5.246 15.44-10.352 3.169-4.562 6.161-8.87 12.37-9.981.036-.007.064-.029.099-.039a.98.98 0 0 0 .341-.176.971.971 0 0 0 .244-.284zM10.354 58.348C3.223 52.026.782 37.45 2.595 11.465c2.751 7.318 8.521 11.976 14.15 16.499 9.118 7.327 17.738 14.265 12.311 32.208a305.192 305.192 0 0 0-3.741-4.844c-6.141-7.839-12.491-15.945-13.992-25.329a1 1 0 0 0-1.975.317c1.583 9.894 8.095 18.207 14.393 26.246a291.167 291.167 0 0 1 3.781 4.901c-7.511 1.474-13.137.458-17.168-3.115zM70.582 43.01c-4.293 6.179-8.027 11.507-19.446 8.728-.006-.039.002-.076-.009-.114-.037-.129-.059-.249-.094-.376 3.908-3.695 8.618-6.763 14.094-8.365a1.001 1.001 0 0 0-.562-1.92c-5.389 1.576-10.07 4.495-14.014 8.037-.538-3.38-.023-6.079 1.591-8.179 3.404-4.427 11.763-6.527 26.759-6.663-3.655 2.153-6.018 5.54-8.319 8.852z"/></symbol><symbol viewBox="0 0 612 612" id="login"><path d="M331.685 425.378c-7.478 7.479-7.478 19.584 0 27.043 7.479 7.478 19.584 7.478 27.043 0l131.943-131.962c3.979-3.979 5.681-9.276 5.412-14.479.269-5.221-1.434-10.499-5.412-14.477L358.728 159.56c-7.459-7.478-19.584-7.478-27.043 0-7.478 7.478-7.478 19.584 0 27.042l100.272 100.272H19.125C8.568 286.875 0 295.443 0 306s8.568 19.125 19.125 19.125h412.832L331.685 425.378zM535.5 38.25H153c-42.247 0-76.5 34.253-76.5 76.5v76.5h38.25v-76.5c0-21.114 17.117-38.25 38.25-38.25h382.5c21.133 0 38.25 17.136 38.25 38.25v382.5c0 21.114-17.117 38.25-38.25 38.25H153c-21.133 0-38.25-17.117-38.25-38.25v-76.5H76.5v76.5c0 42.247 34.253 76.5 76.5 76.5h382.5c42.247 0 76.5-34.253 76.5-76.5v-382.5c0-42.247-34.253-76.5-76.5-76.5z"/></symbol><symbol viewBox="0 0 463 463" id="macaron"><path d="M367.504 168h-16.002a7.5 7.5 0 0 0 0 15h16.002a7.5 7.5 0 0 0 0-15zM111.499 280H95.497a7.5 7.5 0 0 0 0 15h16.002a7.5 7.5 0 0 0 0-15z"/><path d="M442.215 248.162c3.028-4.837 4.785-10.547 4.785-16.662s-1.757-11.825-4.785-16.662C453.898 213.487 463 203.539 463 191.5c0-10.422-6.821-19.275-16.232-22.344C443.508 123.859 405.615 88 359.5 88h-256c-46.114 0-84.007 35.859-87.268 81.156C6.821 172.225 0 181.078 0 191.5c0 12.039 9.102 21.987 20.785 23.338C17.757 219.675 16 225.385 16 231.5s1.757 11.825 4.785 16.662C9.102 249.513 0 259.461 0 271.5c0 10.421 6.821 19.275 16.231 22.344C19.493 339.141 57.386 375 103.5 375h256c46.114 0 84.007-35.859 87.268-81.156C456.179 290.775 463 281.922 463 271.5c0-12.039-9.102-21.987-20.785-23.338zM31 231.5c0-9.098 7.402-16.5 16.5-16.5h368c9.098 0 16.5 7.402 16.5 16.5s-7.402 16.5-16.5 16.5h-368c-9.098 0-16.5-7.402-16.5-16.5zm-16-40c0-4.687 3.813-8.5 8.5-8.5h296.001a7.5 7.5 0 0 0 0-15H31.387c3.765-36.466 34.668-65 72.113-65h256c37.444 0 68.347 28.534 72.113 65H399.5a7.5 7.5 0 0 0 0 15h40c4.687 0 8.5 3.813 8.5 8.5s-3.813 8.5-8.5 8.5h-416c-4.687 0-8.5-3.813-8.5-8.5zM439.5 280H143.499a7.5 7.5 0 0 0 0 15h288.114c-3.765 36.466-34.668 65-72.113 65h-256c-37.444 0-68.348-28.535-72.113-65H63.5a7.5 7.5 0 0 0 0-15h-40c-4.687 0-8.5-3.813-8.5-8.5s3.813-8.5 8.5-8.5h416c4.687 0 8.5 3.813 8.5 8.5s-3.812 8.5-8.5 8.5z"/><path d="M359.5 135a40.568 40.568 0 0 1 30.184 13.496 7.482 7.482 0 0 0 5.59 2.497 7.47 7.47 0 0 0 5-1.913 7.498 7.498 0 0 0 .584-10.59A55.579 55.579 0 0 0 359.5 120h-32.002a7.5 7.5 0 0 0 0 15H359.5zm-63.999-15h-15.999a7.5 7.5 0 0 0 0 15h15.999a7.5 7.5 0 0 0 0-15z"/></symbol><symbol viewBox="0 0 107.373 107.373" id="pen"><path d="M106.317 37.463a3.58 3.58 0 0 0-5.071 0L70.013 68.692 26.104 88.029l-6.764-6.768 19.344-43.905L69.909 6.123a3.58 3.58 0 0 0 0-5.071 3.58 3.58 0 0 0-5.071 0L32.657 33.226.004 107.373 74.14 74.716l32.177-32.181a3.582 3.582 0 0 0 0-5.072z"/><path d="M60.815 62.265a3.597 3.597 0 0 0 5.074 0l30.07-30.07a3.58 3.58 0 0 0 0-5.075 3.58 3.58 0 0 0-5.075 0l-30.07 30.07a3.594 3.594 0 0 0 .001 5.075zm-7.848-7.852a3.59 3.59 0 0 0 5.074 0l30.073-30.07a3.586 3.586 0 0 0 0-5.075 3.58 3.58 0 0 0-5.075 0l-30.073 30.07a3.587 3.587 0 0 0 .001 5.075zm-7.852-7.852a3.59 3.59 0 0 0 5.074 0l30.073-30.07a3.586 3.586 0 0 0 0-5.075 3.58 3.58 0 0 0-5.075 0l-30.073 30.07a3.594 3.594 0 0 0 .001 5.075z"/></symbol><symbol viewBox="0 0 930 930" shape-rendering="geometricPrecision" text-rendering="geometricPrecision" image-rendering="optimizeQuality" fill-rule="evenodd" clip-rule="evenodd" id="phone"><defs><style>.arfil1{fill:#fefefe}.fil0{fill:#24a2d3}</style></defs><g id="arСлой_x0020_1"><path class="arfil1" d="M482 213c137 21 200 85 218 221v3c1 12-2 28 15 28 14 1 15-10 15-21 0-3-1-6 0-9 1-128-112-246-244-251-10 2-31-7-32 15-1 15 16 13 28 14z"/><path class="arfil1" d="M509 250c-14-1-31-7-34 11-3 19 16 17 29 19 84 19 114 49 128 132 0 3 1 7 1 11 1 10 3 19 18 16 7-1 10-5 11-11 0-5-1-12 0-16 0-79-69-152-153-162z"/><path class="arfil1" d="M516 315c-8 0-17 1-20 11-5 13 5 17 16 18 34 6 53 26 56 60 1 4 2 8 5 11 2 3 6 5 11 5 3-1 5-2 7-3 6-4 7-12 6-20 1-39-43-83-81-82zm176 267c-17-13-35-25-53-38-36-24-69-26-96 13-15 23-36 24-58 14-61-27-108-69-135-129-5-10-7-19-8-28-1-15 6-30 24-42 15-10 31-22 29-44-1-28-72-124-100-134-12-4-23-4-35 0-65 22-92 75-66 137 14 35 30 67 49 98 81 135 199 233 352 298 11 4 23 6 29 8 43 0 93-40 107-80 14-39-15-54-39-73z"/></g></symbol><symbol viewBox="0 0 473.806 473.806" id="phone-call"><path d="M374.456 293.506c-9.7-10.1-21.4-15.5-33.8-15.5-12.3 0-24.1 5.3-34.2 15.4l-31.6 31.5c-2.6-1.4-5.2-2.7-7.7-4-3.6-1.8-7-3.5-9.9-5.3-29.6-18.8-56.5-43.3-82.3-75-12.5-15.8-20.9-29.1-27-42.6 8.2-7.5 15.8-15.3 23.2-22.8 2.8-2.8 5.6-5.7 8.4-8.5 21-21 21-48.2 0-69.2l-27.3-27.3c-3.1-3.1-6.3-6.3-9.3-9.5-6-6.2-12.3-12.6-18.8-18.6-9.7-9.6-21.3-14.7-33.5-14.7s-24 5.1-34 14.7l-.2.2-34 34.3c-12.8 12.8-20.1 28.4-21.7 46.5-2.4 29.2 6.2 56.4 12.8 74.2 16.2 43.7 40.4 84.2 76.5 127.6 43.8 52.3 96.5 93.6 156.7 122.7 23 10.9 53.7 23.8 88 26 2.1.1 4.3.2 6.3.2 23.1 0 42.5-8.3 57.7-24.8.1-.2.3-.3.4-.5 5.2-6.3 11.2-12 17.5-18.1 4.3-4.1 8.7-8.4 13-12.9 9.9-10.3 15.1-22.3 15.1-34.6 0-12.4-5.3-24.3-15.4-34.3l-54.9-55.1zm35.8 105.3c-.1 0-.1.1 0 0-3.9 4.2-7.9 8-12.2 12.2-6.5 6.2-13.1 12.7-19.3 20-10.1 10.8-22 15.9-37.6 15.9-1.5 0-3.1 0-4.6-.1-29.7-1.9-57.3-13.5-78-23.4-56.6-27.4-106.3-66.3-147.6-115.6-34.1-41.1-56.9-79.1-72-119.9-9.3-24.9-12.7-44.3-11.2-62.6 1-11.7 5.5-21.4 13.8-29.7l34.1-34.1c4.9-4.6 10.1-7.1 15.2-7.1 6.3 0 11.4 3.8 14.6 7l.3.3c6.1 5.7 11.9 11.6 18 17.9 3.1 3.2 6.3 6.4 9.5 9.7l27.3 27.3c10.6 10.6 10.6 20.4 0 31-2.9 2.9-5.7 5.8-8.6 8.6-8.4 8.6-16.4 16.6-25.1 24.4-.2.2-.4.3-.5.5-8.6 8.6-7 17-5.2 22.7l.3.9c7.1 17.2 17.1 33.4 32.3 52.7l.1.1c27.6 34 56.7 60.5 88.8 80.8 4.1 2.6 8.3 4.7 12.3 6.7 3.6 1.8 7 3.5 9.9 5.3.4.2.8.5 1.2.7 3.4 1.7 6.6 2.5 9.9 2.5 8.3 0 13.5-5.2 15.2-6.9l34.2-34.2c3.4-3.4 8.8-7.5 15.1-7.5 6.2 0 11.3 3.9 14.4 7.3l.2.2 55.1 55.1c10.3 10.2 10.3 20.7.1 31.3zm-154.2-286.1c26.2 4.4 50 16.8 69 35.8s31.3 42.8 35.8 69c1.1 6.6 6.8 11.2 13.3 11.2.8 0 1.5-.1 2.3-.2 7.4-1.2 12.3-8.2 11.1-15.6-5.4-31.7-20.4-60.6-43.3-83.5s-51.8-37.9-83.5-43.3c-7.4-1.2-14.3 3.7-15.6 11s3.5 14.4 10.9 15.6zm217.2 96.3c-8.9-52.2-33.5-99.7-71.3-137.5s-85.3-62.4-137.5-71.3c-7.3-1.3-14.2 3.7-15.5 11-1.2 7.4 3.7 14.3 11.1 15.6 46.6 7.9 89.1 30 122.9 63.7 33.8 33.8 55.8 76.3 63.7 122.9 1.1 6.6 6.8 11.2 13.3 11.2.8 0 1.5-.1 2.3-.2 7.3-1.1 12.3-8.1 11-15.4z"/></symbol><symbol viewBox="0 0 60 60" id="photo-camera"><path d="M55.201 15.5h-8.524l-4-10H17.323l-4 10H12v-5H6v5H4.799A4.803 4.803 0 0 0 0 20.299v29.368A4.838 4.838 0 0 0 4.833 54.5h50.334A4.838 4.838 0 0 0 60 49.667V20.299a4.803 4.803 0 0 0-4.799-4.799zM8 12.5h2v3H8v-3zm50 37.167a2.836 2.836 0 0 1-2.833 2.833H4.833A2.836 2.836 0 0 1 2 49.667V20.299A2.803 2.803 0 0 1 4.799 17.5h9.878l4-10h22.646l4 10h9.878A2.803 2.803 0 0 1 58 20.299v29.368z"/><path d="M30 14.5c-9.925 0-18 8.075-18 18s8.075 18 18 18 18-8.075 18-18-8.075-18-18-18zm0 34c-8.822 0-16-7.178-16-16s7.178-16 16-16 16 7.178 16 16-7.178 16-16 16z"/><path d="M30 20.5c-6.617 0-12 5.383-12 12s5.383 12 12 12 12-5.383 12-12-5.383-12-12-12zm0 22c-5.514 0-10-4.486-10-10s4.486-10 10-10 10 4.486 10 10-4.486 10-10 10zm22-23c-2.206 0-4 1.794-4 4s1.794 4 4 4 4-1.794 4-4-1.794-4-4-4zm0 6c-1.103 0-2-.897-2-2s.897-2 2-2 2 .897 2 2-.897 2-2 2z"/></symbol><symbol viewBox="0 0 930 930" shape-rendering="geometricPrecision" text-rendering="geometricPrecision" image-rendering="optimizeQuality" fill-rule="evenodd" clip-rule="evenodd" id="pinterest"><defs><style>.aufil1{fill:#fefefe}.fil0{fill:#df2c32}</style></defs><path class="aufil1" d="M488 172c-155 0-233 108-233 198 0 16 2 32 6 47 9 34 29 61 60 73 8 3 15 1 17-8 1-5 5-19 7-25 2-8 1-11-5-18-8-9-14-19-18-32-2-9-4-19-4-30 0-80 62-151 161-151 88 0 136 52 136 121 0 20-2 40-6 58-13 64-49 110-97 110-35 0-60-27-52-61 5-19 11-39 17-57 7-21 12-40 12-55 0-26-14-47-44-47-35 0-63 35-63 81 0 9 1 17 2 24 3 17 8 27 8 27s-36 146-42 172c-12 51-2 114-1 120 1 4 6 5 8 2 3-4 45-54 59-104 4-14 23-86 23-86 11 21 44 39 80 39 85 0 149-62 169-151 5-21 7-43 7-66 0-94-82-181-207-181z" id="auСлой_x0020_1"/></symbol><symbol viewBox="0 0 410.23 410.23" id="search"><path d="M401.625 364.092l-107.1-107.1c19.125-26.775 30.6-59.288 30.6-93.713C325.125 73.391 252.45.717 162.563.717S0 73.392 0 163.279s72.675 162.562 162.562 162.562c34.425 0 66.938-11.475 93.713-30.6l107.1 107.1c9.562 9.562 26.775 9.562 38.25 0 11.475-11.474 11.475-26.775 0-38.249zm-239.063-76.5c-68.85 0-124.312-55.463-124.312-124.312 0-68.85 55.462-124.312 124.312-124.312S286.874 94.43 286.874 163.28c.001 68.849-55.462 124.312-124.312 124.312z"/></symbol><symbol viewBox="0 0 482.4 482.4" id="speech-bubble"><path d="M412.5 28.75H69.9C31.4 28.75 0 60.05 0 98.65v209.1c0 38.5 31.3 69.9 69.9 69.9h30.7v62.5c0 5.1 2.9 9.7 7.4 12 1.9 1 4 1.5 6.1 1.5 2.8 0 5.6-.9 8-2.6l100.7-73.4h189.7c38.5 0 69.9-31.3 69.9-69.9V98.65c0-38.6-31.4-69.9-69.9-69.9zm42.9 278.9c0 23.6-19.2 42.9-42.9 42.9H218.4c-2.9 0-5.6.9-8 2.6l-82.8 60.4v-49.5c0-3.6-1.4-7-4-9.5s-6-4-9.5-4H69.9c-23.6 0-42.9-19.2-42.9-42.9v-209c0-23.6 19.2-42.9 42.9-42.9h342.6c23.6 0 42.9 19.2 42.9 42.9v209z"/><path d="M360.5 119.95H121.9c-7.5 0-13.5 6-13.5 13.5s6 13.5 13.5 13.5h238.6c7.5 0 13.5-6 13.5-13.5s-6-13.5-13.5-13.5zm0 65.4H121.9c-7.5 0-13.5 6-13.5 13.5s6 13.5 13.5 13.5h238.6c7.5 0 13.5-6 13.5-13.5s-6-13.5-13.5-13.5zm0 65.4H121.9c-7.5 0-13.5 6-13.5 13.5s6 13.5 13.5 13.5h238.6c7.5 0 13.5-6 13.5-13.5s-6-13.5-13.5-13.5z"/></symbol><symbol viewBox="0 0 63.914 63.914" id="stemware"><path d="M60.914 33.22h3v-2h-3c-2.757 0-5-2.243-5-5v-5a1 1 0 0 0-1-1c-3.859 0-7 3.141-7 7v4.051c-.165-.024-.329-.051-.5-.051h-6.882l-.169-.337c4.25-2.054 6.258-7.086 4.479-11.534l-5-12.5a1.001 1.001 0 0 0-1.3-.558l-15 6a1 1 0 0 0-.558 1.3l5 12.5c1.419 3.546 4.836 5.707 8.439 5.707a8.97 8.97 0 0 0 1.251-.098c-1.047.606-1.762 1.725-1.762 3.02 0 1.561 1.034 2.871 2.448 3.321a3.455 3.455 0 0 0-.448 1.679c0 1.561 1.034 2.871 2.448 3.321a3.455 3.455 0 0 0-.448 1.679c0 1.561 1.034 2.871 2.448 3.321a3.455 3.455 0 0 0-.448 1.679c0 1.93 1.57 3.5 3.5 3.5h1.823l1.377 3.443-4.071 1.628.742 1.857 10-4-.742-1.857-4.07 1.629-1.08-2.7h4.023c.171 0 .335-.027.5-.051v.051h7c.266 0 .519-.106.707-.293l1.707-1.707h.586v-2h-1a.996.996 0 0 0-.707.293L60.5 51.22h-3.937c.218-.456.351-.961.351-1.5 0-1.561-1.034-2.871-2.449-3.321a3.456 3.456 0 0 0 .449-1.679c0-1.561-1.034-2.871-2.449-3.321a3.456 3.456 0 0 0 .449-1.679c0-1.561-1.034-2.871-2.449-3.321a3.456 3.456 0 0 0 .449-1.679c0-.98-.407-1.864-1.058-2.5h.058v-5a5.008 5.008 0 0 1 4-4.899v3.899c0 3.859 3.141 7 7 7zM38.357 8.52l2.731 6.828c-1.351.197-2.259.594-3.08.958-1.104.49-2.056.914-4.094.914s-2.99-.424-4.094-.914c-.999-.444-2.116-.939-4.018-1.058l-.588-1.471L38.357 8.52zm-8.514 16.829l-3.198-7.995c.959.162 1.631.455 2.363.78 1.145.509 2.444 1.086 4.906 1.086 2.462 0 3.761-.577 4.906-1.086.891-.396 1.692-.744 3.036-.865l1.129 2.822c1.45 3.624-.319 7.751-3.942 9.2a7.085 7.085 0 0 1-9.2-3.942zm8.071 9.371c0-.827.673-1.5 1.5-1.5h8c.827 0 1.5.673 1.5 1.5s-.673 1.5-1.5 1.5h-8c-.827 0-1.5-.673-1.5-1.5zm17 15c0 .827-.673 1.5-1.5 1.5h-8c-.827 0-1.5-.673-1.5-1.5s.673-1.5 1.5-1.5h8c.827 0 1.5.673 1.5 1.5zm-2-5c0 .827-.673 1.5-1.5 1.5h-8c-.827 0-1.5-.673-1.5-1.5s.673-1.5 1.5-1.5h8c.827 0 1.5.673 1.5 1.5zm-2-5c0 .827-.673 1.5-1.5 1.5h-8c-.827 0-1.5-.673-1.5-1.5s.673-1.5 1.5-1.5h8c.827 0 1.5.673 1.5 1.5zM31.167 57.121l-1.461-3.409 1.289-1.289a3.504 3.504 0 0 0 0-4.95c-.423-.424-.952-.696-1.514-.848a3.472 3.472 0 0 0 .418-1.626c0-.935-.364-1.814-1.025-2.475a3.361 3.361 0 0 0-1.515-.849c.696-1.321.505-2.992-.606-4.102-.424-.424-.954-.697-1.516-.849.695-1.321.504-2.991-.605-4.1-.917-.917-2.215-1.202-3.385-.888 3.261-2.455 4.568-6.904 2.89-10.82L18.833 8.542a.996.996 0 0 0-1.312-.525l-14.85 6.364a1.001 1.001 0 0 0-.525 1.313L7.45 28.068a9.02 9.02 0 0 0 4.972 4.853 9.059 9.059 0 0 0 3.373.654 9.013 9.013 0 0 0 2.978-.518l.119.358-4.866 4.866c-.121.121-.218.256-.318.389l-2.865-2.864c-2.727-2.728-7.168-2.729-9.899 0a.997.997 0 0 0 0 1.414l3.536 3.535a5.006 5.006 0 0 1 0 7.071L0 52.306l1.414 1.414 4.479-4.479a7.008 7.008 0 0 0 0-9.899l-2.758-2.757a5.008 5.008 0 0 1 6.293.636l3.536 3.535.04-.041a3.483 3.483 0 0 0 1.02 2.516c.432.432.953.711 1.502.869a3.465 3.465 0 0 0-.406 1.605c0 .935.364 1.813 1.025 2.475.424.424.943.71 1.503.872-.681 1.318-.486 2.975.618 4.078.433.432.955.711 1.505.869-.682 1.318-.487 2.976.616 4.08a3.46 3.46 0 0 0 1.073.723l-2.532 2.418H16.5a1 1 0 0 0-.758.348l-.707.821 1.516 1.305.408-.474h2.369c.257 0 .504-.099.69-.276l4.457-4.251c.309-.161.605-.354.864-.613l2.844-2.845 1.146 2.674-4.03 1.728.787 1.838 9.899-4.243-.787-1.838-4.031 1.727zM19.553 15.298c-1.504.173-2.458.614-3.315 1.016-1.031.487-1.923.906-3.824.906s-2.793-.419-3.824-.905c-.807-.379-1.696-.795-3.052-.986l11.851-5.079 2.164 5.048zm-6.389 15.766a7.031 7.031 0 0 1-3.877-3.783L5 17.277c1.196.128 1.928.466 2.738.848 1.091.513 2.327 1.095 4.676 1.095s3.585-.582 4.676-1.095c.929-.438 1.751-.818 3.293-.89l1.916 4.468c1.537 3.588-.131 7.757-3.718 9.294a7.04 7.04 0 0 1-5.417.067zm2.275 8.631l5.656-5.656a1.499 1.499 0 0 1 1.062-.438 1.5 1.5 0 0 1 1.061.438 1.503 1.503 0 0 1 0 2.121l-1.414 1.414-4.243 4.243a1.501 1.501 0 0 1-2.122-2.122zm1.682 6.01c0-.4.156-.777.439-1.061l1.414-1.414 4.243-4.243a1.49 1.49 0 0 1 1.061-.439 1.502 1.502 0 0 1 1.061 2.561l-5.657 5.656c-.566.566-1.555.566-2.121 0a1.484 1.484 0 0 1-.44-1.06zm2.561 3.889l5.657-5.656c.283-.283.66-.44 1.061-.44.4 0 .777.156 1.06.44.283.283.44.66.44 1.06s-.156.777-.44 1.061l-1.413 1.413-.001.001-4.245 4.245a1.504 1.504 0 0 1-2.119-.002 1.502 1.502 0 0 1 0-2.122zm4.243 7.071c-.08.08-.179.121-.27.179l-.067-.07-.249.237a1.489 1.489 0 0 1-1.536-.347 1.503 1.503 0 0 1 0-2.121l1.41-1.41.005-.004 4.243-4.244c.283-.282.66-.438 1.059-.438a1.502 1.502 0 0 1 1.061 2.562l-5.656 5.656zM18.598 6.168a5.353 5.353 0 0 1 3.368 3.368.998.998 0 0 0 1.896 0 5.353 5.353 0 0 1 3.368-3.368.998.998 0 0 0 0-1.896A5.353 5.353 0 0 1 23.862.904c-.135-.409-.517-.684-.948-.684s-.813.275-.948.684a5.353 5.353 0 0 1-3.368 3.368.998.998 0 1 0 0 1.896zm4.316-2.753a7.404 7.404 0 0 0 1.805 1.805 7.404 7.404 0 0 0-1.805 1.805 7.37 7.37 0 0 0-1.805-1.805 7.387 7.387 0 0 0 1.805-1.805z"/><path d="M13.914 23.22c-1.654 0-3 1.346-3 3s1.346 3 3 3 3-1.346 3-3-1.346-3-3-3zm0 4a1 1 0 1 1 0-2 1 1 0 0 1 0 2zm28-4c0-1.654-1.346-3-3-3s-3 1.346-3 3 1.346 3 3 3 3-1.346 3-3zm-3 1a1 1 0 1 1 0-2 1 1 0 0 1 0 2zm-21-4h2v2h-2zm12 1h2v2h-2zm3 3h2v2h-2zM8.4 5.078l1.029-1.715 5 3L13.4 8.078l-5-3zm5.567-3.541l1.896-.632 1 3-1.896.632-1-3zm14.432 4.826l4.999-3.001 1.029 1.715-5 3.001-1.028-1.715zM51.914 2.22h2v4h-2v-4zm0 6h2v2h-2v-2zm0 4h2v4h-2v-4zm4-4h4v2h-4v-2zm-10 0h4v2h-4v-2z"/></symbol><symbol viewBox="0 0 60 60" id="suitcase"><path d="M56.99 13.5H55v-3H45v3h-4V7.706A3.21 3.21 0 0 0 37.794 4.5H22.206A3.21 3.21 0 0 0 19 7.706V13.5h-4v-3H5v3H3.01A3.014 3.014 0 0 0 0 16.51v35.98a3.014 3.014 0 0 0 3.01 3.01h53.98A3.014 3.014 0 0 0 60 52.49V16.51a3.014 3.014 0 0 0-3.01-3.01zm-9.99-1h6v1h-6v-1zM21 7.706c0-.665.541-1.206 1.206-1.206h15.588c.665 0 1.206.541 1.206 1.206V13.5H21V7.706zM19 15.5h31v38H10v-38h9zm-12-3h6v1H7v-1zM2 52.49V16.51c0-.557.453-1.01 1.01-1.01H8v38H3.01c-.557 0-1.01-.453-1.01-1.01zm56 0c0 .557-.453 1.01-1.01 1.01H52v-38h4.99c.557 0 1.01.453 1.01 1.01v35.98z"/></symbol><symbol viewBox="0 0 2595 2595" shape-rendering="geometricPrecision" text-rendering="geometricPrecision" image-rendering="optimizeQuality" fill-rule="evenodd" clip-rule="evenodd" id="twitter"><defs><style>.azfil1{fill:#fefefe}.fil0{fill:#59beec}</style></defs><path class="azfil1" d="M2066 902c-57 24-118 41-181 48 65-38 115-99 138-171-61 35-128 61-200 75-57-60-139-98-230-98-174 0-315 139-315 310 0 25 3 48 8 71-262-13-495-137-650-324-27 46-43 99-43 156 0 107 56 202 141 258-52-2-101-16-143-39v4c0 40 7 78 21 113 39 97 125 170 232 192-27 7-55 10-83 10-21 0-40-2-60-5 40 123 157 213 295 215-108 84-244 133-392 133-25 0-50-1-75-4 140 88 305 139 483 139 493 0 796-341 876-695 14-63 21-126 21-188 0-13 0-27-1-40 62-44 115-98 158-160z" id="azСлой_x0020_1"/></symbol><symbol viewBox="0 0 370.227 370.227" id="two-macarons"><path d="M361.437 233.82c5.41-5.18 8.79-12.465 8.79-20.529a28.36 28.36 0 0 0-5.654-17.007c2.504-3.064 4.07-6.84 4.07-11.526 0-27.52-55.905-41.918-111.13-41.918-13.026 0-25.647.777-37.644 2.291a17.788 17.788 0 0 0-2.834-5c-2.591-3.208-7.031-6.392-14.352-6.299.026-.211.059-.42.082-.632.803-7.553-1.385-14.966-6.156-20.871a28.345 28.345 0 0 0-15.088-9.679c.021-3.957-1.133-7.877-4.077-11.523-2.983-3.691-8.888-8.093-20.075-8.093-22.239 0-58.63 17.792-92.71 45.326-42.955 34.706-77.392 81.04-60.097 102.448 1.974 2.441 5.273 5.244 10.413 6.341A28.481 28.481 0 0 0 21.26 254c5.068 6.273 12.277 9.812 19.741 10.44-1.643 7.187.598 12.211 3.151 15.37 3.125 3.867 8.626 7.355 18.298 7.355 6.979 0 16.129-1.816 28.124-6.615 17.032-6.815 36.551-18.344 55.811-32.884l-.003.086c0 8.562 6.184 20.673 35.643 29.752 20.269 6.247 47.076 9.688 75.485 9.688s55.217-3.44 75.486-9.688c29.46-9.079 35.644-21.19 35.644-29.752.003-4.126-1.437-9.401-7.203-13.932zm-189.787-7.182c5.921-5.436 11.466-10.936 16.556-16.409 17.539 2.098 39.774 2.54 69.308 2.54 32.417 0 56.165-.536 74.366-3.207 4.623-.679 12.766-1.879 20.216-4.859a13.387 13.387 0 0 1 3.132 8.588c0 6.939-6.199 13.318-13.434 13.436-12.254.198-18.675 3.11-24.339 5.855-5.02 2.433-8.985 4.354-17.798 4.354s-12.778-1.921-17.798-4.354c-5.664-2.745-12.083-5.855-24.339-5.855-12.257 0-18.677 3.11-24.342 5.854-5.02 2.433-8.986 4.355-17.801 4.355-8.814 0-12.801-1.877-17.8-4.354-12.765-6.325-25.628-5.921-25.927-5.944zm156.776-59.1c17.42 5.785 25.217 12.816 25.217 17.219 0 3.118-6.289 7.373-23.941 9.963-19.169 2.814-47.313 3.049-72.188 3.049-18.997 0-39.937-.142-57.311-1.465 2.849-3.601 5.466-7.156 7.806-10.634 6.991-10.39 10.68-18.755 12.234-25.473 11.814-1.564 24.322-2.358 37.27-2.358 26.898 0 52.082 3.444 70.913 9.699zM25.023 192.139c10.717-16.699 28.142-35.206 49.064-52.11 35.904-29.009 67.699-41.994 83.282-41.994 2.38 0 6.636.328 8.407 2.52 1.96 2.426-.259 9.688-12.361 22.797-13.142 14.233-34.886 32.104-54.235 47.738-25.403 20.525-63.793 51.543-79.56 51.541-2.382-.001-3.037-.813-3.39-1.248-2.766-3.426-1.12-13.797 8.793-29.244zm7.907 52.435a13.454 13.454 0 0 1-2.969-8.7c17.353-5.383 41.601-23.186 78.646-53.117 25.216-20.374 43.351-35.716 55.829-49.231 3.17-3.435 8.751-9.486 12.673-16.487a13.389 13.389 0 0 1 7.831 4.716 13.345 13.345 0 0 1 2.909 9.861 13.344 13.344 0 0 1-4.915 9.03c-9.533 7.702-12.571 14.156-15.252 19.852-2.376 5.047-4.253 9.034-11.108 14.572-6.854 5.538-11.145 6.535-16.579 7.798-6.13 1.425-13.078 3.039-22.611 10.741-9.535 7.703-12.574 14.158-15.256 19.854-2.376 5.048-4.253 9.035-11.107 14.574-6.856 5.539-11.148 6.536-16.583 7.799-6.132 1.425-13.081 3.04-22.616 10.744l-.004.004c-5.764 4.647-14.234 3.748-18.888-2.01zm52.073 22.05c-19.256 7.705-26.341 7.095-29.184 3.758-1.047-1.228-1.489-6.215 5.419-12.127l.011-.008c6.856-5.541 11.149-6.538 16.584-7.801 6.131-1.425 13.08-3.04 22.614-10.743 9.532-7.703 12.571-14.157 15.252-19.852 2.377-5.048 4.254-9.035 11.11-14.575 6.855-5.538 11.148-6.535 16.581-7.798 6.13-1.425 13.078-3.039 22.61-10.741 9.534-7.702 12.572-14.157 15.253-19.852 2.376-5.047 4.253-9.033 11.107-14.571l.018-.016c10.875-8.729 13.762 1.034 13.788 1.143.726 2.975-.762 10.032-10.605 23.856-4.473 6.281-9.625 13.097-15.746 19.894a8.301 8.301 0 0 0-.156.171c-9.527 10.558-20.996 21.347-33.707 31.618-20.963 16.937-42.609 30.306-60.949 37.644zm243.579-3.453c-18.877 5.817-44.116 9.022-71.068 9.022-26.952 0-52.191-3.204-71.067-9.022-19.823-6.11-25.337-12.771-25.061-15.418.463-4.445 8.568-5.932 11.85-6.027 8.812-.257 12.781 1.922 17.803 4.354 5.664 2.744 12.084 5.855 24.34 5.855 12.257 0 18.677-3.11 24.342-5.855 5.02-2.433 8.986-4.354 17.801-4.354 8.813 0 12.778 1.921 17.798 4.354 5.664 2.745 12.083 5.855 24.339 5.855 12.256 0 18.675-3.11 24.339-5.855 5.02-2.433 8.985-4.396 17.798-4.354 8.267.039 11.851 3.975 11.851 6.027-.004 2.661-5.242 9.308-25.065 15.418z"/></symbol><symbol viewBox="0 0 930 930" shape-rendering="geometricPrecision" text-rendering="geometricPrecision" image-rendering="optimizeQuality" fill-rule="evenodd" clip-rule="evenodd" id="vk"><defs><style>.bbfil1{fill:#fefefe}.fil0{fill:#5076a6}</style></defs><path class="bbfil1" d="M733 339c-7-7-36-7-65-6-29 0-59 0-65 3-7 2-21 36-39 71-21 40-46 78-62 77-21 0-17-65-15-113 0-31-5-41-9-44-11-8-42-15-42-15s-91-7-104 33c17 2 47-4 36 118-1 6-14 57-57-11-10-17-51-119-65-119-47-2-94-4-110 6-15 8 20 78 80 172 49 77 101 137 190 152 17 1 61 3 75-3 9-5-2-71 29-78 15-2 69 70 90 78 12 5 40 7 68 6 31-1 65 2 68-18 8-46-92-106-95-134-2-20 37-58 57-86 24-35 51-77 35-89z" id="bbСлой_x0020_1"/></symbol><symbol viewBox="0 0 64 64" id="wedding-rings"><path d="M49.379 26.53l5.202-3.716a1 1 0 0 0 .313-1.261l-2-4A.998.998 0 0 0 52 17H41.596C39.707 7.254 31.015 0 21 0 9.42 0 0 9.42 0 21s9.42 21 21 21c1.827 0 3.624-.24 5.368-.701A18.968 18.968 0 0 0 26 45c0 10.477 8.523 19 19 19s19-8.523 19-19c0-8.967-6.252-16.485-14.621-18.47zM50.88 23l-4.049 2.892L48.566 23h2.314zM45 25.056L43.766 23h2.467L45 25.056zm-1.831.836L39.12 23h2.314l1.735 2.892zM43.281 21l.5-2h2.438l.5 2h-3.438zm-2.062 0h-3.601l1-2h3.101l-.5 2zm-5.8 1.814l.01.007C34.528 29.989 28.408 35.556 21 35.556c-8.026 0-14.556-6.53-14.556-14.556S12.974 6.444 21 6.444c7.919 0 14.369 6.361 14.54 14.24l-.434.868c-.22.441-.087.976.313 1.262zm1.832 1.308l3.37 2.407a18.816 18.816 0 0 0-4.829 1.864 16.393 16.393 0 0 0 1.459-4.271zM52.382 21h-3.601l-.5-2h3.101l1 2zM21 40C10.523 40 2 31.477 2 21S10.523 2 21 2c8.932 0 16.701 6.374 18.56 15H38a.996.996 0 0 0-.834.464C35.541 10.03 28.915 4.444 21 4.444 11.871 4.444 4.444 11.871 4.444 21S11.871 37.556 21 37.556c2.659 0 5.165-.645 7.393-1.764a18.931 18.931 0 0 0-1.415 3.23A18.963 18.963 0 0 1 21 40zm24 22c-9.374 0-17-7.626-17-17s7.626-17 17-17 17 7.626 17 17-7.626 17-17 17z"/><path d="M45 30c-8.271 0-15 6.729-15 15s6.729 15 15 15 15-6.729 15-15-6.729-15-15-15zm0 28c-7.169 0-13-5.832-13-13s5.831-13 13-13c7.168 0 13 5.832 13 13s-5.832 13-13 13zM56 4h2v4h-2zm0 6h2v2h-2zm0 4h2v4h-2zm4-4h4v2h-4zm-10 0h4v2h-4zm-7-2h2V6h2V4h-2V2h-2v2h-2v2h2zM18 44h2v2h-2zm4 0h2v2h-2zm-8 0h2v2h-2z"/></symbol></svg>