<?xml version="1.0" encoding="utf-8"?>
<!-- Generator: Adobe Illustrator 21.0.2, SVG Export Plug-In . SVG Version: 6.00 Build 0)  -->
<svg version="1.1" id="Слой_1" xmlns="http://www.w3.org/2000/svg" xmlns:xlink="http://www.w3.org/1999/xlink" x="0px" y="0px"
	 viewBox="0 0 612 792" style="enable-background:new 0 0 612 792;" xml:space="preserve">
<style type="text/css">
	.st0{fill:#FFFFFF;}
</style>
<g>
	<g>
		<path class="st0" d="M606.5,712.5c-200,0-400,0-600,0c0-200,0-400,0-600c200,0,400,0,600,0C606.5,312.5,606.5,512.5,606.5,712.5z
			 M256.5,275c-1.4,0-2.5,0-3.6,0c-61.2,0-122.3,0-183.5,0C41.2,275,19,297.1,19,325.2c0,87.4,0,174.8,0,262.2
			c0,27.9,22.2,50.1,50,50.1c158.3,0,316.6,0,474.9,0c27.8,0,50-22.2,50-50.1c0.1-87.4,0-174.8,0-262.2c0-3.7-0.4-7.5-1.2-11.1
			c-5.3-23.1-25.2-39-48.9-39c-61.3,0-122.7,0-184,0c-1.1,0-2.1,0-3.3,0c0-1.2,0-2.1,0-3c0-15.1,0-30.2,0-45.2
			c0-2.7-0.2-5.5-0.5-8.2c-3-27.6-30.8-48.1-58.1-42.8c-24.7,4.8-41.4,24.9-41.4,50c0,15.4,0,30.8,0,46.2
			C256.5,272.9,256.5,273.8,256.5,275z"/>
		<path d="M256.5,275c0-1.2,0-2.1,0-3c0-15.4,0-30.8,0-46.2c0-25.2,16.7-45.2,41.4-50c27.3-5.3,55.1,15.1,58.1,42.8
			c0.3,2.7,0.5,5.5,0.5,8.2c0,15.1,0,30.2,0,45.2c0,0.9,0,1.8,0,3c1.2,0,2.3,0,3.3,0c61.3,0,122.7,0,184,0c23.7,0,43.7,15.9,48.9,39
			c0.8,3.6,1.2,7.4,1.2,11.1c0.1,87.4,0.1,174.8,0,262.2c0,27.9-22.2,50.1-50,50.1c-158.3,0-316.6,0-474.9,0
			c-27.9,0-50-22.2-50-50.1C19,500,19,412.6,19,325.2c0-28.1,22.2-50.2,50.4-50.2c61.2,0,122.3,0,183.5,0
			C254,275,255.1,275,256.5,275z M91.6,612.1c0.2-0.5,0.5-1.3,0.9-2.2c3.6-7.1,7-14.4,10.8-21.4c5-9.3,13-15.2,22.6-19.1
			c10.8-4.4,22.1-6.2,33.6-7c3-0.2,5.9-0.3,9.1-0.5c0-4,0.1-7.8-0.1-11.5c0-0.7-0.7-1.6-1.3-2.1c-2.5-2-5.2-3.9-7.8-5.9
			c-12.5-9.3-19.8-21.8-22.2-37.2c-2-12.6-3.7-25.2-5.1-37.9c-1.7-15.1-0.9-30.1,3.4-44.8c6.4-22,20-37.4,42.4-43.9
			c18.5-5.4,37.4-5.4,56-0.3c20,5.4,33.7,18.1,41.2,37.4c5.1,13.2,6.9,26.9,6.4,40.9c-0.7,17.8-3.3,35.3-6.6,52.7
			c-2,10.3-6.7,19.6-14.4,26.9c-4.5,4.3-9.7,7.9-14.5,11.8c-0.6,0.5-1.4,1.2-1.5,1.8c-0.1,4-0.1,7.9-0.1,12c3.4,0.2,6.4,0.3,9.4,0.5
			c11,0.7,21.8,2.5,32.2,6.5c10.3,4,18.8,10.1,24,20c3.7,7,7.1,14.1,10.5,21.2c0.8,1.6,1.5,2.3,3.4,2.3c73.1-0.1,146.2,0,219.2-0.1
			c15,0,25.8-10.8,25.8-25.9c0-86.9,0-173.8,0-260.7c0-15-10.8-25.9-25.8-25.9c-61.3,0-122.7,0-184,0c-0.9,0-1.8,0-2.6,0
			c-0.6,28-21.8,48.4-47.1,49.9c-12.5,0.8-23.9-2.8-33.8-10.6c-12.6-10-18.7-23.2-19.3-39.3c-1.1,0-2.1,0-3.1,0
			c-60.9,0-121.8,0-182.7,0c-16,0-26.5,10.5-26.5,26.6c0,73.6,0,147.2,0,220.7c0,13.5-0.1,27,0,40.5c0.1,12,8.8,22.7,20.6,24
			C73.4,612.8,82.4,612.1,91.6,612.1z M294,612.4c-3.8-8.9-8.4-16.6-18-19.6c-4.7-1.5-9.4-3-14.2-3.8c-6.4-1-12.9-1.2-19.3-2.1
			c-14.8-2.1-23.8-12.9-23.6-27.6c0.1-7.7,0.2-15.3,0.1-23c0-1.8,0.6-2.7,2.1-3.7c7.4-4.9,14.9-9.7,22-15c6.6-4.9,10-12.3,10.7-20.2
			c1.4-14.9,2.1-29.9,2.6-44.9c0.2-4.8-0.5-9.7-1.5-14.4c-3.8-17.6-13.4-30.6-31.2-35.9c-11.4-3.4-23-3.3-34.5,0
			c-11.7,3.4-20.4,10.7-26,21.5c-4.3,8.1-6.8,16.8-6.5,25.9c0.4,16.1,1.2,32.1,2.6,48.1c0.7,7.7,4,14.9,10.5,19.8
			c7.3,5.4,14.9,10.2,22.4,15.4c0.8,0.6,1.8,1.6,1.8,2.5c0.2,9.1,0.2,18.2,0.2,27.2c0,6.2-2.4,11.5-6.8,15.9
			c-5.8,5.7-12.8,8.3-20.9,9c-6.9,0.6-13.7,1.4-20.5,2.6c-12.2,2.2-21.6,8.3-26.1,20.5c-0.2,0.6-0.4,1.2-0.6,1.8
			C177.5,612.4,235.6,612.4,294,612.4z M331.5,262.5c0-12.4,0-24.8,0-37.2c-0.1-14.1-11.1-25.2-24.9-25.3c-14,0-25,11.1-25.1,25.4
			c0,24.7,0,49.5,0,74.2c0,2.3,0.3,4.7,0.9,6.9c3.2,12,14.9,19.9,26.9,18.4c12.8-1.7,22.1-12,22.2-24.6
			C331.6,287.7,331.5,275.1,331.5,262.5z"/>
		<path class="st0" d="M91.6,612.1c-9.2,0-18.1,0.8-26.9-0.2c-11.8-1.3-20.5-12.1-20.6-24c-0.1-13.5,0-27,0-40.5
			c0-73.6,0-147.2,0-220.7c0-16.1,10.5-26.6,26.5-26.6c60.9,0,121.8,0,182.7,0c1,0,2,0,3.1,0c0.6,16.1,6.7,29.4,19.3,39.3
			c9.9,7.8,21.3,11.3,33.8,10.6c25.3-1.5,46.5-21.9,47.1-49.9c0.9,0,1.7,0,2.6,0c61.3,0,122.7,0,184,0c15,0,25.8,10.8,25.8,25.9
			c0,86.9,0,173.8,0,260.7c0,15-10.8,25.9-25.8,25.9c-73.1,0-146.2,0-219.2,0.1c-1.9,0-2.6-0.7-3.4-2.3c-3.4-7.1-6.8-14.2-10.5-21.2
			c-5.3-9.9-13.7-16-24-20c-10.4-4-21.2-5.8-32.2-6.5c-3-0.2-6-0.3-9.4-0.5c0-4-0.1-8,0.1-12c0-0.6,0.9-1.3,1.5-1.8
			c4.8-3.9,10-7.5,14.5-11.8c7.7-7.3,12.5-16.6,14.4-26.9c3.3-17.4,6-35,6.6-52.7c0.5-14-1.2-27.8-6.4-40.9
			c-7.5-19.3-21.2-32-41.2-37.4c-18.6-5-37.5-5-56,0.3c-22.4,6.5-35.9,21.9-42.4,43.9c-4.3,14.7-5.1,29.7-3.4,44.8
			c1.4,12.7,3.1,25.3,5.1,37.9c2.4,15.3,9.7,27.8,22.2,37.2c2.6,1.9,5.2,3.8,7.8,5.9c0.6,0.5,1.3,1.4,1.3,2.1
			c0.1,3.7,0.1,7.5,0.1,11.5c-3.2,0.2-6.2,0.3-9.1,0.5c-11.5,0.7-22.8,2.6-33.6,7c-9.6,3.9-17.6,9.8-22.6,19.1
			c-3.8,7-7.2,14.2-10.8,21.4C92.1,610.7,91.8,611.6,91.6,612.1z M431.6,412.5c-24.8,0-49.6,0-74.5,0c-4.4,0-8,1.5-10.6,5
			c-3,4-3.4,8.5-1.2,13c2.3,4.7,6.3,7,11.5,7c29.4,0,58.8,0,88.2,0c20.2,0,40.5,0,60.7,0c4.2,0,7.7-1.3,10.4-4.6
			c3.2-4,3.9-8.5,1.7-13.1c-2.2-4.8-6.2-7.3-11.5-7.3C481.4,412.5,456.5,412.5,431.6,412.5z M394.1,562.5c12.2,0,24.5,0,36.7,0
			c7.6,0,13.1-5.3,13.2-12.4c0-7.2-5.5-12.6-13.2-12.6c-24.5,0-49,0-73.5,0c-1.1,0-2.2,0-3.2,0.2c-6.4,1.3-10.7,7.1-10,13.5
			c0.6,6.4,5.9,11.2,12.6,11.2C369.1,562.5,381.6,562.5,394.1,562.5z M444,512.5c6.7,0,13.5,0,20.2,0c2.3,0,4.7,0.2,7-0.2
			c6.5-1.1,10.8-6.9,10.3-13.3c-0.5-6.5-5.9-11.4-12.6-11.4c-16.3,0-32.6,0-49,0c-7.8,0-13.4,5.2-13.4,12.4
			c0,7.2,5.6,12.5,13.3,12.6C427.9,512.5,435.9,512.5,444,512.5z M369.1,487.5c-4.2,0-8.3,0-12.5,0c-7.1,0.1-12.6,5.5-12.6,12.4
			c0,7,5.4,12.5,12.5,12.5c8.3,0.1,16.6,0.1,25,0c7.1-0.1,12.5-5.6,12.5-12.6c0-6.9-5.5-12.3-12.6-12.4
			C377.3,487.5,373.2,487.5,369.1,487.5z"/>
		<path class="st0" d="M294,612.4c-58.4,0-116.5,0-174.8,0c0.2-0.7,0.4-1.3,0.6-1.8c4.5-12.2,13.9-18.3,26.1-20.5
			c6.8-1.2,13.7-2,20.5-2.6c8-0.7,15.1-3.3,20.9-9c4.4-4.3,6.8-9.6,6.8-15.9c0-9.1,0-18.2-0.2-27.2c0-0.9-1-1.9-1.8-2.5
			c-7.4-5.2-15.1-10-22.4-15.4c-6.5-4.8-9.9-12.1-10.5-19.8c-1.4-16-2.2-32.1-2.6-48.1c-0.2-9.1,2.3-17.8,6.5-25.9
			c5.7-10.8,14.3-18.1,26-21.5c11.5-3.3,23.1-3.4,34.5,0c17.9,5.4,27.4,18.3,31.2,35.9c1,4.7,1.7,9.6,1.5,14.4
			c-0.6,15-1.2,30-2.6,44.9c-0.7,7.9-4.1,15.3-10.7,20.2c-7.1,5.3-14.6,10.2-22,15c-1.5,1-2.1,1.9-2.1,3.7c0.1,7.7,0,15.3-0.1,23
			c-0.2,14.8,8.9,25.6,23.6,27.6c6.4,0.9,13,1,19.3,2.1c4.8,0.8,9.5,2.3,14.2,3.8C285.6,595.9,290.2,603.5,294,612.4z"/>
		<path class="st0" d="M331.5,262.5c0,12.6,0.1,25.2,0,37.7c-0.1,12.6-9.4,22.9-22.2,24.6c-11.9,1.6-23.7-6.4-26.9-18.4
			c-0.6-2.2-0.9-4.6-0.9-6.9c-0.1-24.7-0.1-49.5,0-74.2c0-14.2,11.1-25.4,25.1-25.4c13.8,0,24.9,11.2,24.9,25.3
			C331.5,237.7,331.5,250.1,331.5,262.5z M294.2,225.1c0,8.4,0,16.6,0,24.7c8.4,0,16.6,0,24.7,0c0-8.3,0-16.5,0-24.7
			C310.6,225.1,302.5,225.1,294.2,225.1z"/>
		<path d="M431.6,412.5c24.9,0,49.8,0,74.7,0c5.3,0,9.3,2.5,11.5,7.3c2.1,4.6,1.5,9.1-1.7,13.1c-2.6,3.3-6.2,4.6-10.4,4.6
			c-20.2,0-40.5,0-60.7,0c-29.4,0-58.8,0-88.2,0c-5.2,0-9.2-2.3-11.5-7c-2.2-4.5-1.8-8.9,1.2-13c2.6-3.5,6.2-5,10.6-5
			C381.9,412.5,406.8,412.5,431.6,412.5z"/>
		<path d="M394.1,562.5c-12.5,0-25,0-37.5,0c-6.6,0-11.9-4.8-12.6-11.2c-0.6-6.5,3.6-12.2,10-13.5c1-0.2,2.1-0.2,3.2-0.2
			c24.5,0,49,0,73.5,0c7.7,0,13.3,5.4,13.2,12.6c0,7.1-5.6,12.4-13.2,12.4C418.6,562.5,406.3,562.5,394.1,562.5z"/>
		<path d="M444,512.5c-8.1,0-16.2,0-24.2,0c-7.7,0-13.3-5.3-13.3-12.6c0-7.2,5.6-12.4,13.4-12.4c16.3,0,32.6,0,49,0
			c6.7,0,12.1,4.9,12.6,11.4c0.5,6.4-3.8,12.2-10.3,13.3c-2.3,0.4-4.6,0.2-7,0.2C457.5,512.5,450.8,512.5,444,512.5z"/>
		<path d="M369.1,487.5c4.1,0,8.2,0,12.2,0c7.1,0.1,12.6,5.5,12.6,12.4c0,6.9-5.4,12.5-12.5,12.6c-8.3,0.1-16.6,0.1-25,0
			c-7.1-0.1-12.5-5.6-12.5-12.5c0-6.9,5.5-12.4,12.6-12.4C360.8,487.5,365,487.5,369.1,487.5z"/>
		<path d="M294.2,225.1c8.3,0,16.4,0,24.7,0c0,8.2,0,16.4,0,24.7c-8.1,0-16.3,0-24.7,0C294.2,241.7,294.2,233.5,294.2,225.1z"/>
	</g>
</g>
</svg>
